<svg width="15" height="20" viewBox="0 0 15 20" fill="none" xmlns="http://www.w3.org/2000/svg">
<path d="M1.58138 7.41429L1.57852 7.41857L1.57138 7.42714L1.54995 7.45571L1.47566 7.55714C1.41281 7.64381 1.33233 7.76571 1.23423 7.92286C0.976547 8.34398 0.755725 8.78658 0.574232 9.24572C0.131373 10.36 -0.225771 11.9386 0.172802 13.7271C0.549946 15.4271 1.27852 17.0043 2.54138 18.1614C3.81567 19.3271 5.56568 20 7.85712 20C10.1671 20 11.9771 19.2243 13.2043 17.8957C14.4214 16.5757 15 14.7814 15 12.8571C15 11.63 14.5914 10.4443 14.0429 9.33714C13.5214 8.28286 12.8443 7.24571 12.2086 6.27L12.1143 6.12714C11.4386 5.09143 10.8243 4.13429 10.4143 3.22286C10.0071 2.31286 9.84712 1.53714 9.98427 0.854286C10.005 0.750698 10.0024 0.643808 9.97686 0.541315C9.95128 0.438823 9.90329 0.34328 9.83633 0.261571C9.76938 0.179861 9.68514 0.114019 9.58967 0.0687882C9.49421 0.0235573 9.3899 6.37896e-05 9.28426 0C8.68141 0 7.67569 0.211429 6.72283 0.704286C5.76139 1.20286 4.7571 2.03714 4.31996 3.34571C3.76282 5.01714 4.40568 6.90286 4.95282 8.09286C5.19711 8.62143 4.98568 9.20714 4.58139 9.41C4.49056 9.45584 4.39157 9.48326 4.2901 9.49068C4.18863 9.49811 4.0867 9.48539 3.99016 9.45325C3.89363 9.42112 3.80441 9.37021 3.72764 9.30346C3.65086 9.2367 3.58805 9.15542 3.54281 9.06429L2.77995 7.53714C2.72623 7.4297 2.64627 7.33755 2.54748 7.2692C2.44869 7.20086 2.33425 7.15853 2.21477 7.14614C2.09528 7.13375 1.9746 7.1517 1.86389 7.19832C1.75318 7.24494 1.65601 7.32015 1.58138 7.41429Z" fill="white"/>
</svg>
