<svg width="419" height="454" viewBox="0 0 419 454" fill="none" xmlns="http://www.w3.org/2000/svg">
<path d="M71.875 4.43555C85.3287 -1.74944 102.687 -2.2155 114.315 7.86914C120.352 13.2965 124.131 19.7645 127.082 27.2578C127.452 28.1947 127.852 29.1102 128.277 30.0234C129.007 31.6083 129.608 33.2308 130.203 34.8701C131.126 37.4065 131.125 37.407 132.095 39.9258C135.559 48.6584 138.299 57.998 140.535 67.1123C140.725 67.8693 140.929 68.6213 141.139 69.373C142.156 73.0234 143.03 76.6866 143.81 80.3936C143.865 80.656 143.866 80.656 143.923 80.9238C144.024 81.4016 144.123 81.8803 144.223 82.3584C144.322 83.0246 144.322 83.0251 144.653 83.3105C144.783 83.9477 144.902 84.5832 145.014 85.2236C145.242 86.4903 145.485 87.7405 145.815 88.9854C146.188 90.4253 146.483 91.875 146.765 93.335C146.807 93.5518 146.85 93.7687 146.894 93.9922C147.518 97.2895 147.884 100.503 147.864 103.854C147.861 104.408 147.864 104.961 147.867 105.515C147.875 112.355 145.907 118.582 141.512 123.867C141.329 124.089 141.146 124.312 140.958 124.541C138.713 127.153 136.003 129.307 133.132 131.194C132.749 131.451 132.748 131.45 132.357 131.712C130.356 133.025 130.356 133.025 129.466 133.025V133.549C129.209 133.676 128.952 133.803 128.688 133.934C128.331 134.111 127.974 134.288 127.617 134.465C127.428 134.559 127.239 134.652 127.044 134.749C125.934 135.303 124.838 135.876 123.75 136.472C122.148 137.348 120.56 138.092 118.833 138.703C118.079 138.992 117.356 139.307 116.623 139.644C114.943 140.415 113.239 141.122 111.529 141.824C111.198 141.961 110.867 142.097 110.536 142.233C107.962 143.294 105.385 144.345 102.806 145.392C99.7043 146.65 96.6201 147.946 93.5439 149.265C93.2282 149.4 92.9122 149.536 92.5869 149.675C86.9982 151.898 86.9977 151.898 83.3242 156.473C82.5588 158.801 82.4176 161.038 83.1182 163.378C83.1951 163.65 83.2723 163.923 83.3516 164.203C83.7303 165.49 84.1453 166.744 84.6504 167.987C85.282 169.546 85.8346 171.13 86.3916 172.717C87.3745 175.492 88.4019 178.247 89.4688 180.991C89.5327 181.156 89.5963 181.321 89.6621 181.49C93.1461 190.518 93.1467 190.518 97.083 199.353C97.4929 200.214 97.8847 201.081 98.2725 201.952C99.4768 204.657 100.728 207.34 101.988 210.02C102.076 210.205 102.163 210.391 102.253 210.583C103.871 214.031 105.532 217.459 107.34 220.812C108.115 222.263 108.868 223.722 109.599 225.195C110.42 226.85 111.274 228.484 112.161 230.104C112.501 230.725 112.838 231.348 113.176 231.97C115.658 236.536 118.211 241.047 120.868 245.515C121.377 246.372 121.882 247.23 122.388 248.089C124.311 251.353 126.262 254.596 128.311 257.784C128.729 258.436 129.144 259.09 129.56 259.744C134.669 267.769 139.997 275.66 145.647 283.314C146.088 283.913 146.525 284.515 146.961 285.116C147.326 285.618 147.692 286.12 148.058 286.621C148.185 286.796 148.314 286.971 148.445 287.151C150.571 290.062 152.741 292.932 154.969 295.766C155.358 296.261 155.744 296.758 156.131 297.255C157.762 299.348 159.44 301.399 161.133 303.441C161.271 303.609 161.409 303.777 161.552 303.95C161.888 304.357 162.227 304.761 162.566 305.165C162.983 305.722 162.983 305.722 162.983 306.245H163.507C164.016 306.799 164.016 306.799 164.587 307.521C164.777 307.757 164.967 307.994 165.162 308.238C165.602 308.862 165.602 308.862 165.602 309.385H166.125C166.452 309.753 166.76 310.139 167.059 310.53C167.803 311.485 168.565 312.401 169.382 313.294C170.178 314.165 170.936 315.054 171.673 315.976C172.845 317.431 174.118 318.782 175.416 320.126C175.569 320.287 175.722 320.448 175.88 320.613C176.088 320.828 176.088 320.829 176.3 321.048C176.599 321.422 176.6 321.422 176.6 321.945H177.123C177.465 322.283 177.465 322.284 177.876 322.779C178.738 323.792 179.625 324.778 180.527 325.755C180.663 325.902 180.798 326.05 180.938 326.201C181.677 326.999 182.43 327.777 183.211 328.535C183.931 329.271 183.932 329.272 183.932 329.795H184.455V330.318H184.979C185.354 330.699 185.355 330.699 185.793 331.228C186.802 332.412 187.875 333.513 188.977 334.61C189.176 334.81 189.376 335.009 189.582 335.215C190 335.633 190.418 336.051 190.837 336.468C191.48 337.109 192.121 337.751 192.762 338.394C193.169 338.801 193.578 339.207 193.985 339.614C194.177 339.807 194.369 339.999 194.566 340.197C194.744 340.374 194.922 340.551 195.104 340.732C195.261 340.888 195.417 341.044 195.578 341.204C195.968 341.595 195.968 341.595 196.5 341.831V342.354C196.722 342.447 196.722 342.448 196.949 342.542C197.684 342.955 198.161 343.46 198.742 344.071C202.329 347.735 202.329 347.735 207.095 349.082C207.44 349.079 207.44 349.079 207.792 349.076C208.033 349.074 208.275 349.072 208.523 349.07C211.381 348.969 213.549 347.978 215.533 345.87C215.917 345.402 216.294 344.927 216.663 344.447C216.887 344.163 217.111 343.879 217.336 343.595C217.698 343.136 218.058 342.676 218.416 342.214C219.425 340.917 220.484 339.669 221.562 338.43C222.542 337.299 223.473 336.138 224.381 334.948C224.513 334.802 224.645 334.656 224.78 334.505H225.304C225.372 334.352 225.441 334.199 225.512 334.042C225.846 333.425 226.211 332.993 226.693 332.484C226.866 332.302 227.039 332.119 227.217 331.931C227.401 331.739 227.586 331.547 227.775 331.349C228.058 331.052 228.058 331.051 228.346 330.748C232.329 326.575 232.33 326.574 234.45 324.769C235.092 324.213 235.711 323.634 236.334 323.057C245.947 314.312 257.516 307.841 270.802 308.287C275.226 308.553 279.391 310.3 283.173 312.525C283.318 312.61 283.464 312.694 283.614 312.781C285.964 314.148 288.237 315.611 290.488 317.133C291.506 317.819 292.528 318.499 293.549 319.181C293.747 319.314 293.946 319.447 294.15 319.584C294.936 320.108 295.712 320.619 296.533 321.087C296.704 321.197 296.875 321.308 297.051 321.422V321.945C297.222 322 297.393 322.054 297.569 322.11C298.664 322.606 299.573 323.295 300.537 324.006C300.745 324.158 300.953 324.31 301.167 324.466C301.804 324.932 302.439 325.401 303.073 325.87C303.349 326.074 303.35 326.074 303.631 326.282C306.172 328.168 308.686 330.09 311.197 332.016C311.678 332.383 312.16 332.749 312.642 333.115C314.297 334.375 315.913 335.672 317.505 337.011C318.215 337.606 318.932 338.191 319.652 338.773C322.717 341.274 325.688 343.898 328.586 346.589C328.741 346.732 328.895 346.876 329.055 347.024C329.36 347.308 329.665 347.592 329.969 347.877C330.731 348.601 330.731 348.6 331.615 349.157V349.681C331.77 349.751 331.925 349.821 332.085 349.893C332.671 350.209 333.053 350.53 333.521 350.999C333.764 351.24 333.764 351.24 334.012 351.486C334.184 351.66 334.356 351.835 334.533 352.014C334.803 352.284 334.803 352.284 335.079 352.56C335.46 352.941 335.841 353.323 336.221 353.706C336.797 354.286 337.375 354.865 337.953 355.442C338.324 355.815 338.695 356.187 339.066 356.56C339.237 356.73 339.407 356.901 339.583 357.077C340.586 358.09 341.544 359.129 342.475 360.209C343.049 360.87 343.649 361.505 344.249 362.143C345.684 363.693 346.998 365.321 348.276 367.002C348.513 367.314 348.752 367.625 348.991 367.935C352.249 372.158 354.861 376.613 356.753 381.604C356.863 381.879 356.972 382.154 357.085 382.438C359.404 388.687 359.04 395.764 357.015 402.013C356.873 402.461 356.874 402.462 356.729 402.919C354.4 409.894 349.668 415.922 344.621 421.155C343.932 421.818 343.931 421.819 343.66 422.423H343.137V422.946C342.646 423.502 342.645 423.503 342.089 423.993H341.565V424.516C341.218 424.866 341.218 424.866 340.715 425.284C339.899 425.976 339.102 426.682 338.319 427.411C336.925 428.707 335.507 429.93 333.972 431.058C333.811 431.177 333.649 431.296 333.483 431.419C330.813 433.39 328.094 435.258 325.288 437.031C324.862 437.303 324.439 437.58 324.018 437.858C322.631 438.77 321.218 439.554 319.726 440.279C318.89 440.685 318.064 441.102 317.249 441.548C314.18 443.225 311.017 444.633 307.787 445.973C307.495 446.096 307.203 446.218 306.902 446.345C304.266 447.432 301.584 448.3 298.852 449.112C298.509 449.215 298.509 449.215 298.159 449.319C290.762 451.52 283.037 453.223 275.302 453.515C274.571 453.532 274.571 453.533 274.041 453.692C273.406 453.841 272.837 453.855 272.185 453.855C271.798 453.857 271.798 453.857 271.403 453.858C271.127 453.858 270.85 453.857 270.564 453.856C270.278 453.857 269.992 453.857 269.697 453.857C269.093 453.858 268.488 453.858 267.884 453.856C266.959 453.855 266.034 453.856 265.109 453.857C264.522 453.857 263.934 453.857 263.347 453.856C263.07 453.857 262.794 453.858 262.51 453.858C262.251 453.858 261.992 453.856 261.726 453.855C261.499 453.855 261.272 453.856 261.039 453.855C260.364 453.821 259.742 453.7 259.082 453.561C258.472 453.527 257.861 453.5 257.25 453.479C247.096 452.966 237.015 450.461 227.398 447.28C227.209 447.219 227.02 447.157 226.825 447.094C217.249 443.948 208.041 439.742 199.251 434.823C198.543 434.43 197.829 434.046 197.116 433.661C195.955 433.029 194.83 432.359 193.718 431.646C192.227 430.704 190.724 429.789 189.201 428.898C189.013 428.788 188.825 428.679 188.631 428.565C188.272 428.356 187.913 428.146 187.554 427.937C179.264 423.092 171.248 417.627 163.507 411.956C163.304 411.808 163.101 411.66 162.893 411.508C158.789 408.511 154.743 405.456 150.811 402.238C150.104 401.661 149.388 401.095 148.663 400.541C147.554 399.688 146.489 398.784 145.424 397.877C144.506 397.095 143.578 396.327 142.641 395.569C141.262 394.448 139.946 393.265 138.631 392.07C137.198 390.789 135.721 389.576 134.212 388.386C134.028 388.22 133.845 388.054 133.656 387.884V387.36C133.502 387.292 133.347 387.224 133.188 387.153C132.573 386.817 132.188 386.462 131.708 385.954C131.156 385.382 130.634 384.895 130.006 384.4C129.828 384.255 129.649 384.109 129.466 383.959V383.436C129.326 383.382 129.187 383.328 129.043 383.272C128.157 382.76 127.521 382.059 126.815 381.325C125.881 380.294 125.88 380.294 124.753 379.511V378.987C124.603 378.923 124.453 378.858 124.299 378.791C123.614 378.413 123.143 377.971 122.593 377.417C122.408 377.234 122.223 377.05 122.032 376.861C121.611 376.371 121.61 376.37 121.61 375.847H121.087V375.324C120.934 375.258 120.781 375.191 120.623 375.122C119.977 374.766 119.584 374.382 119.085 373.841C118.819 373.555 118.819 373.554 118.548 373.263C118.365 373.063 118.182 372.864 117.994 372.658C117.633 372.267 117.27 371.876 116.908 371.485C116.733 371.295 116.558 371.106 116.377 370.91C115.72 370.215 115.036 369.55 114.343 368.892C114.017 368.521 114.017 368.52 114.017 367.997H113.493C113.097 367.595 113.096 367.594 112.643 367.049C112.041 366.338 111.432 365.665 110.76 365.021C110.089 364.334 110.089 364.334 110.089 363.811H109.565C109.185 363.382 108.822 362.938 108.469 362.486C107.776 361.619 107.094 360.784 106.292 360.017C105.323 359.082 104.506 358.044 103.663 356.997C102.988 356.184 102.283 355.408 101.562 354.636C100.518 353.513 99.5357 352.358 98.5898 351.15C97.9563 350.356 97.2978 349.586 96.6367 348.814C95.6271 347.631 94.6443 346.429 93.6904 345.2C93.5789 345.058 93.4674 344.915 93.3525 344.769C92.8675 344.137 92.5375 343.64 92.2832 342.878H91.7598C91.2803 342.288 90.83 341.694 90.3848 341.079C90.0995 340.691 89.8135 340.304 89.5273 339.917C89.3033 339.614 89.3036 339.613 89.0752 339.304C88.3389 338.318 87.5774 337.353 86.8174 336.386C85.0713 334.156 83.3859 331.883 81.7148 329.597C81.3044 329.036 80.8922 328.475 80.4795 327.916C79.4141 326.471 78.3524 325.024 77.3086 323.563C77.0927 323.262 77.0923 323.262 76.8721 322.954C76.5725 322.469 76.5723 322.468 76.5723 321.945H76.0488C75.6488 321.403 75.2813 320.86 74.9189 320.293C74.6838 319.932 74.4487 319.572 74.2129 319.212C74.0869 319.019 73.9609 318.826 73.8311 318.627C73.1335 317.57 72.4132 316.528 71.6953 315.485C71.1387 314.673 70.5826 313.861 70.0264 313.049C69.9091 312.878 69.7917 312.706 69.6709 312.53C69.368 312.088 69.0665 311.644 68.7656 311.2C68.602 310.96 68.4381 310.719 68.2695 310.472C67.931 309.909 67.9316 309.908 67.9316 309.385H67.4072C66.9805 308.76 66.5847 308.136 66.1963 307.488C65.9587 307.1 65.7208 306.711 65.4824 306.323C65.3056 306.035 65.3053 306.035 65.125 305.74C64.6806 305.025 64.2135 304.326 63.7412 303.629C62.5871 301.915 61.4987 300.162 60.4092 298.407C60.087 297.89 59.7626 297.374 59.4375 296.858C55.8607 291.182 52.4339 285.4 49.165 279.541C48.6258 278.575 48.0789 277.614 47.5244 276.656C46.1222 274.232 44.7722 271.804 43.542 269.288C43.0542 268.293 42.5344 267.317 42.0078 266.342C40.3834 263.323 38.8749 260.251 37.4248 257.145C36.8918 256.008 36.3407 254.882 35.7754 253.762C34.6435 251.518 33.5694 249.252 32.5322 246.963C32.4495 246.781 32.3665 246.599 32.2812 246.411C30.593 242.693 29.0016 238.936 27.4434 235.162C27.0888 234.305 26.7316 233.449 26.373 232.593C25.8336 231.3 25.3257 229.998 24.832 228.688C24.5196 227.89 24.1932 227.1 23.8604 226.311C23.0933 224.477 22.3803 222.624 21.6816 220.764C21.6144 220.585 21.5468 220.406 21.4775 220.222C20.1034 216.558 18.854 212.858 17.6377 209.14C17.1666 207.7 16.6844 206.264 16.2002 204.829C13.6052 197.121 11.4233 189.332 9.47363 181.439C9.11733 179.999 8.75988 178.561 8.36426 177.131C7.4072 173.65 6.63673 170.167 5.9873 166.616C5.83493 165.79 5.68199 164.963 5.52832 164.137C5.4914 163.938 5.45406 163.738 5.41602 163.533C5.12872 161.997 4.80322 160.471 4.46973 158.944C4.2433 157.865 4.06722 156.783 3.9082 155.692C3.69201 154.225 3.43698 152.773 3.14844 151.318C2.64802 148.728 2.34139 146.114 2.02832 143.495C1.92884 142.664 1.82761 141.833 1.72559 141.002C1.33531 137.798 0.97924 134.593 0.699219 131.378C0.634481 130.655 0.56204 129.933 0.490234 129.211C0.0190337 124.19 0.0135258 119.17 0.0146484 114.132C0.0146909 113.137 0.0110654 112.141 0.00390625 111.146C-0.056675 102.59 0.559715 94.3378 2.20703 85.9268C2.27069 85.5914 2.27001 85.5912 2.33496 85.249C2.58234 83.9689 2.87596 82.7278 3.25391 81.4785C3.41159 80.9437 3.56923 80.4089 3.72656 79.874C3.90717 79.2641 4.08776 78.6538 4.26855 78.0439C4.40165 77.5939 4.4023 77.594 4.53809 77.1348C4.80698 76.2275 5.07709 75.3205 5.34863 74.4141C5.48765 73.9489 5.48806 73.9482 5.62988 73.4736C5.72045 73.1743 5.81098 72.8748 5.9043 72.5664C5.98508 72.2986 6.06618 72.0308 6.14941 71.7549C6.4655 70.8049 6.87358 69.9199 7.30469 69.0176C7.73605 68.0664 8.1201 67.1025 8.50488 66.1318C9.6293 63.3066 10.9112 60.6282 12.376 57.9648C12.6583 57.4462 12.9318 56.9238 13.2012 56.3984C15.4393 52.0495 18.187 48.0117 21.0596 44.0605C21.3618 43.6417 21.3626 43.6422 21.6709 43.2148C23.0942 41.2776 24.6365 39.4569 26.2178 37.6484C26.4928 37.3334 26.7651 37.0159 27.0371 36.6982C30.433 32.7478 34.0742 28.8218 38.0801 25.4834C38.3164 25.2793 38.5525 25.0745 38.7959 24.8643C43.8971 20.4688 49.3223 16.5467 55.0527 13.0146C55.5581 12.7025 56.0612 12.3873 56.5635 12.0703C60.7152 9.48258 65.1653 7.0803 69.7549 5.37402C70.4869 5.09723 71.1731 4.78019 71.875 4.43555ZM235.371 13.5508C242.849 6.81426 251.83 7.51003 260.89 10.0908C261.536 10.2626 262.179 10.4177 262.831 10.5635C266.577 11.4057 270.219 12.5109 273.876 13.6777C274.739 13.9523 275.602 14.2231 276.467 14.4922C276.973 14.6505 277.479 14.8093 277.985 14.9678C278.32 15.0718 278.32 15.0715 278.662 15.1777C279.956 15.5869 281.213 16.0512 282.469 16.5635C283.248 16.8779 284.031 17.1783 284.816 17.4766C285.102 17.5853 285.388 17.6946 285.683 17.8066C286.267 18.0286 286.851 18.2498 287.436 18.4707C289.043 19.0839 290.616 19.7392 292.177 20.4629C293.054 20.8596 293.946 21.2111 294.842 21.5635C298.057 22.8526 301.193 24.362 304.272 25.9434C304.739 26.1825 305.207 26.4201 305.675 26.6572C315.757 31.769 325.457 37.6635 334.472 44.4941C335.08 44.955 335.691 45.4131 336.304 45.8682C338.137 47.2305 339.946 48.6066 341.701 50.0684C342.545 50.7608 343.416 51.4158 344.294 52.0654C344.43 52.187 344.567 52.3083 344.708 52.4336V52.957C344.847 53.0153 344.986 53.0737 345.129 53.1338C345.971 53.6001 346.668 54.2095 347.392 54.8379C347.55 54.9742 347.708 55.1106 347.871 55.251C349.323 56.5131 350.729 57.8228 352.123 59.1475C353.16 60.1316 354.219 61.0759 355.317 61.9912C355.445 62.1185 355.574 62.2458 355.706 62.377V62.9004C356.052 63.073 356.397 63.246 356.753 63.4238V63.9473H357.276C357.833 64.4379 357.833 64.4381 358.324 64.9941V65.5166C358.67 65.6893 359.016 65.8621 359.372 66.04V66.5635H359.896V67.0869H360.419C360.807 67.4804 360.807 67.4809 361.254 68.0195C361.868 68.7422 362.49 69.4331 363.168 70.0957C363.964 70.8786 364.701 71.6983 365.429 72.5439C365.952 73.1445 366.491 73.7293 367.03 74.3154C368.122 75.5218 369.124 76.784 370.121 78.0684C370.75 78.8772 371.386 79.6686 372.071 80.4316C381.287 90.7584 388.608 103.275 395.057 115.434C395.374 116.03 395.694 116.625 396.018 117.218C397.244 119.476 398.356 121.766 399.402 124.112C399.481 124.287 399.558 124.462 399.639 124.642C401.115 127.934 402.542 131.246 403.887 134.596C403.993 134.861 404.099 135.126 404.209 135.398C406.454 141.021 408.605 146.776 410.031 152.668C410.239 153.526 410.469 154.312 410.794 155.138C411.395 156.687 411.743 158.317 412.129 159.931C412.263 160.492 412.4 161.053 412.537 161.613C413.023 163.617 413.451 165.621 413.816 167.65C414.007 168.693 414.234 169.717 414.501 170.743C414.937 172.427 415.232 174.123 415.506 175.84C415.546 176.092 415.547 176.092 415.588 176.35C416.105 179.588 416.521 182.838 416.913 186.094C416.941 186.322 416.969 186.551 416.998 186.786C417.311 189.361 417.568 191.927 417.679 194.52C417.714 195.328 417.769 196.114 417.897 196.914C418.046 198.068 418.063 199.188 418.061 200.35C418.061 200.586 418.061 200.823 418.062 201.067C418.063 201.846 418.061 202.625 418.061 203.403C418.061 203.947 418.061 204.491 418.062 205.034C418.062 206.172 418.062 207.311 418.061 208.449C418.059 209.905 418.06 211.36 418.062 212.815V217.793C418.062 218.544 418.062 219.296 418.061 220.047C418.061 220.266 418.061 220.487 418.062 220.713C418.057 222.034 417.945 223.297 417.765 224.606C417.74 224.961 417.719 225.317 417.708 225.672C417.701 225.856 417.694 226.04 417.687 226.229C417.675 226.521 417.675 226.522 417.664 226.819C417.535 229.63 417.205 232.411 416.854 235.201C416.749 236.039 416.647 236.878 416.546 237.717C416.18 240.699 415.745 243.643 415.146 246.587C415.04 247.138 414.935 247.689 414.829 248.24C413.476 255.071 411.18 260.865 405.195 264.902C400.46 267.894 395.132 268.911 389.583 267.843C388.652 267.606 387.765 267.333 386.866 266.996C386.646 266.915 386.425 266.833 386.198 266.749C385.616 266.51 385.066 266.244 384.51 265.949C384.301 265.84 384.092 265.73 383.877 265.617C382.132 264.637 380.697 263.424 379.272 262.024C379.089 261.844 378.905 261.664 378.716 261.479C374.659 257.219 373.323 252.041 373.41 246.324C373.506 243.811 374.083 241.44 374.647 238.999C377.891 224.301 377.968 207.657 376.198 192.735C376.126 192.123 376.055 191.51 375.985 190.897C375.44 186.177 374.792 181.513 373.674 176.889C373.444 175.913 373.24 174.933 373.034 173.952C371.469 166.548 369.145 159.454 366.646 152.321C366.582 152.139 366.519 151.956 366.453 151.769C366.019 150.538 365.518 149.358 364.958 148.181C364.605 147.41 364.286 146.632 363.971 145.846C363.223 143.985 362.413 142.18 361.498 140.396C360.908 139.243 360.347 138.08 359.801 136.905C358.867 134.898 357.882 132.959 356.759 131.05C356.286 130.245 355.829 129.433 355.377 128.616C353.415 125.081 351.237 121.687 348.969 118.341C348.637 117.85 348.307 117.359 347.978 116.866C344.924 112.333 341.561 107.977 338.015 103.817C337.894 103.675 337.772 103.532 337.647 103.385C336.802 102.389 335.94 101.409 335.058 100.445C334.758 100.056 334.758 100.056 334.758 99.5332C334.499 99.4469 334.239 99.3604 333.972 99.2715C333.522 98.8158 333.522 98.8155 333.056 98.2578C332.4 97.4785 332.4 97.4778 331.689 96.751C331.354 96.3933 331.354 96.393 331.354 95.8701C331.094 95.7838 330.835 95.6973 330.568 95.6084C330.211 95.1794 329.862 94.7417 329.521 94.2998C328.669 93.4025 327.761 92.6011 326.818 91.8027C326.203 91.2694 325.638 90.6955 325.069 90.1133C323.635 88.652 322.175 87.2553 320.617 85.9268C320.342 85.6871 320.066 85.447 319.791 85.207C317.899 83.5641 315.968 81.9964 313.968 80.4883C313.545 80.1677 313.126 79.8433 312.707 79.5176C309.674 77.1593 306.553 74.9443 303.336 72.8438C303.063 72.6646 302.79 72.4853 302.509 72.3008C300.067 70.7131 297.573 69.2157 295.069 67.7285C294.643 67.474 294.217 67.2178 293.792 66.96C291.048 65.2965 288.224 63.8319 285.333 62.4424C285.169 62.3634 285.005 62.2845 284.836 62.2031C280.86 60.2903 276.842 58.4508 272.702 56.917C272.26 56.7507 271.818 56.5809 271.381 56.4014C269.374 55.578 267.326 54.8833 265.269 54.2002C265.079 54.1374 264.89 54.0745 264.695 54.0098C259.012 52.1271 253.279 50.5417 247.441 49.2158C242.359 48.0598 238.413 46.5247 234.73 42.7529C234.537 42.562 234.344 42.3705 234.145 42.1738C230.407 38.272 228.831 33.071 228.922 27.7578C229.189 22.3841 231.471 17.2657 235.371 13.5508ZM222.947 72.1729C226.464 71.3462 230.72 71.3408 234.207 72.3203C234.337 72.4497 234.337 72.4499 234.469 72.582C235.001 72.6945 235.537 72.7955 236.072 72.8926C240.782 73.8126 245.299 75.1907 249.836 76.7354C250.06 76.8113 250.284 76.8876 250.515 76.9658C253.852 78.101 257.132 79.3516 260.392 80.6934C260.687 80.815 260.984 80.9372 261.288 81.0625C264.546 82.4214 267.697 83.9193 270.797 85.6064C271.4 85.9324 272.007 86.2512 272.614 86.5684C272.813 86.6722 273.011 86.7768 273.216 86.8838C273.586 87.0772 273.957 87.2703 274.328 87.4629C275.405 88.0291 276.44 88.6417 277.467 89.293C278.02 89.6434 278.583 89.9773 279.147 90.3096C284.712 93.6458 290.064 97.395 295.056 101.538C295.535 101.933 296.019 102.323 296.503 102.713C298.66 104.457 300.737 106.256 302.742 108.175C303.443 108.845 304.129 109.482 304.895 110.079C305.16 110.299 305.16 110.298 305.431 110.522V111.046H305.954C306.51 111.536 306.51 111.537 307.001 112.093V112.616C307.156 112.683 307.311 112.749 307.471 112.817C308.112 113.175 308.451 113.54 308.916 114.104C309.519 114.817 310.13 115.496 310.798 116.148C311.77 117.107 312.662 118.119 313.548 119.157C313.656 119.283 313.764 119.41 313.875 119.54C315.459 121.391 317.018 123.259 318.522 125.176C318.718 125.421 318.913 125.666 319.114 125.919C320.913 128.211 322.549 130.602 324.181 133.014C324.604 133.635 325.04 134.247 325.479 134.857C326.347 136.091 327.156 137.362 327.966 138.635C328.095 138.838 328.225 139.041 328.358 139.25C329.339 140.803 330.223 142.398 331.092 144.016C331.366 144.518 331.641 145.021 331.916 145.523C334.314 149.917 336.562 154.28 338.462 158.912C338.742 159.591 339.033 160.266 339.323 160.941C340.41 163.554 341.379 166.216 342.352 168.873C342.419 169.058 342.486 169.242 342.556 169.433C343.672 172.521 344.464 175.708 345.301 178.881C345.458 179.47 345.622 180.056 345.792 180.642C346.043 181.525 346.234 182.412 346.419 183.312C346.498 183.79 346.498 183.79 346.803 184.05C346.974 184.828 347.131 185.604 347.277 186.388C347.323 186.63 347.369 186.873 347.416 187.123C348.204 191.383 348.875 195.678 349.357 199.984C349.399 200.34 349.442 200.696 349.487 201.052C350.065 205.559 350.026 210.074 350.014 214.609C350.011 215.716 350.012 216.822 350.015 217.928C350.026 222.621 349.974 227.266 349.421 231.934C349.4 232.123 349.379 232.313 349.357 232.508C347.638 247.862 347.638 247.863 344.185 253.39C344.081 253.562 343.978 253.735 343.871 253.912C343.595 254.355 343.595 254.355 343.137 254.96H342.613C342.55 255.11 342.487 255.259 342.422 255.413C340.494 258.852 335.547 261.018 331.924 262.047C326.583 263.324 320.761 262.351 316.101 259.506C311.245 256.403 308.203 251.781 306.939 246.211C306.874 245.903 306.807 245.595 306.739 245.278C306.689 245.054 306.639 244.83 306.587 244.599C305.931 240.829 306.96 236.993 307.636 233.297C307.92 231.714 308.138 230.131 308.311 228.532C308.334 228.341 308.357 228.15 308.381 227.953C309.28 220.406 309.184 212.595 308.359 205.048C308.338 204.849 308.316 204.651 308.294 204.446C307.882 200.773 307.255 197.133 306.478 193.519C306.433 193.311 306.389 193.104 306.344 192.891C305.862 190.658 305.341 188.461 304.609 186.296C304.363 185.561 304.127 184.822 303.892 184.083C302.185 178.782 300.25 173.565 297.529 168.691C297.033 167.795 296.583 166.883 296.135 165.962C295.238 164.156 294.207 162.46 293.123 160.762C292.972 160.52 292.821 160.278 292.666 160.029C290.258 156.189 287.604 152.504 284.744 148.987C284.576 148.774 284.408 148.56 284.235 148.34C280.758 143.968 276.725 139.754 272.438 136.166C272.195 135.956 271.951 135.744 271.701 135.527C263.032 128.035 252.808 121.844 242.08 117.833C241.011 117.433 239.973 116.985 238.934 116.516C236.021 115.237 232.883 114.548 229.804 113.804C228.87 113.574 227.945 113.313 227.02 113.053C226.256 112.853 225.487 112.696 224.715 112.534C220.657 111.608 216.824 109.731 213.782 106.859V106.336H213.259C212.819 105.794 212.413 105.255 212.015 104.685C211.839 104.434 211.839 104.434 211.659 104.178C208.352 99.3982 207.051 94.0549 208.021 88.2812C208.729 84.6846 210.505 81.4841 212.735 78.6006H213.259C213.321 78.4505 213.383 78.3001 213.446 78.1455C215.137 75.1714 219.831 73.1731 222.947 72.1729ZM192.477 141.684C197.775 135.844 206.017 135.046 213.259 136.688C213.562 136.752 213.865 136.816 214.177 136.882C224.829 139.307 234.724 144.133 243.711 150.254C244.134 150.542 244.56 150.827 244.985 151.111C245.225 151.274 245.465 151.436 245.712 151.604C245.919 151.744 246.127 151.884 246.341 152.028C246.484 152.147 246.628 152.266 246.775 152.389V152.912C246.926 152.982 247.077 153.052 247.232 153.124C249.208 154.164 250.839 155.84 252.462 157.35C253.013 157.888 253.014 157.889 253.584 158.146V158.668C253.736 158.735 253.888 158.802 254.045 158.871C255.661 159.756 256.893 161.445 258.081 162.829C258.407 163.203 258.739 163.572 259.077 163.936C265.322 170.653 270.293 178.835 274.008 187.189C274.098 187.391 274.188 187.592 274.28 187.8C275.38 190.286 276.352 192.769 277.123 195.377C277.333 196.081 277.555 196.772 277.793 197.466C278.978 200.994 279.769 204.665 280.357 208.335C280.397 208.581 280.437 208.826 280.478 209.079C280.601 209.893 280.711 210.708 280.816 211.524C280.839 211.697 280.862 211.871 280.886 212.049C281.309 215.32 281.422 218.555 281.408 221.852C281.405 222.644 281.408 223.436 281.411 224.228C281.415 228.74 281.001 233.102 280.194 237.543C280.117 237.994 280.118 237.994 280.039 238.454C278.991 244.313 276.394 249.157 271.651 252.866C269.633 254.245 267.454 255.319 265.105 256.006C264.8 256.099 264.494 256.192 264.18 256.288C258.894 257.575 253.208 256.379 248.585 253.703C244.144 250.919 240.834 246.361 239.556 241.282C239.209 239.701 239.082 238.178 239.084 236.562C239.084 236.306 239.083 236.05 239.083 235.786C239.112 233.648 239.382 231.576 239.705 229.464C241.585 217.025 238.515 204.584 231.036 194.45C230.072 193.18 229.017 192.01 227.922 190.853C227.626 190.505 227.331 190.156 227.038 189.806C222.765 184.954 216.787 181.284 210.787 178.964C210.584 178.885 210.382 178.806 210.173 178.726C207.563 177.734 204.896 176.966 202.179 176.33C196.368 174.912 192.055 171.207 188.906 166.257C186.345 161.917 185.746 156.146 186.942 151.26C187.885 147.804 189.628 144.811 192.049 142.184C192.19 142.019 192.331 141.853 192.477 141.684Z" fill="#010101"/>
</svg>
