<svg width="13" height="21" viewBox="0 0 13 21" fill="none" xmlns="http://www.w3.org/2000/svg">
<path d="M5.2712 14.7915C3.64324 14.6217 2.17539 14.2208 0.918678 13.2379C0.762744 13.1156 0.601751 12.9977 0.459453 12.8611C-0.0906064 12.3328 -0.14603 11.7278 0.289222 11.1043C0.661573 10.5707 1.28663 10.428 1.93632 10.7343C2.06212 10.7937 2.18199 10.8678 2.29679 10.9475C4.63889 12.5567 7.85633 12.6012 10.2072 11.0198C10.4401 10.8412 10.6891 10.6956 10.9777 10.6213C11.5387 10.4772 12.0619 10.6833 12.363 11.1742C12.707 11.7348 12.7026 12.282 12.2788 12.7173C11.6287 13.3846 10.8468 13.8673 9.97805 14.2043C9.15659 14.5227 8.25683 14.6831 7.36631 14.7895C7.50069 14.9358 7.56403 15.0077 7.64805 15.0921C8.85725 16.3071 10.0717 17.5169 11.277 18.7356C11.6876 19.1508 11.7734 19.6657 11.5473 20.1487C11.3001 20.6765 10.7467 21.0238 10.2041 20.9866C9.86038 20.9629 9.59228 20.7918 9.35409 20.5518C8.44158 19.6336 7.51191 18.7323 6.61787 17.7967C6.35769 17.5246 6.23254 17.5761 6.00293 17.8123C5.08492 18.7574 4.15195 19.6879 3.21349 20.6132C2.79209 21.0286 2.29064 21.1034 1.80194 20.8661C1.28245 20.6143 0.951888 20.084 0.977401 19.5511C0.994996 19.1906 1.17226 18.9153 1.41969 18.6683C2.61636 17.4734 3.80973 16.2754 5.00354 15.0785C5.0825 14.9989 5.15618 14.9144 5.2712 14.7915Z" fill="black"/>
<path d="M6.26301 10.6293C3.35876 10.6194 0.977295 8.21176 0.99423 5.30289C1.01095 2.36191 3.39395 -0.00811672 6.32679 2.08931e-05C9.26557 0.00793857 11.6244 2.41205 11.6096 5.3836C11.5947 8.28653 9.19673 10.6394 6.26301 10.6293ZM8.90246 5.30993C8.8974 3.86561 7.74713 2.71579 6.30568 2.71447C4.85212 2.71293 3.69152 3.88364 3.70274 5.34116C3.71351 6.77998 4.87367 7.92166 6.31909 7.91638C7.76011 7.91132 8.90729 6.75402 8.90246 5.30993Z" fill="black"/>
</svg>
