<svg width="160" height="200" viewBox="0 0 160 200" fill="none" xmlns="http://www.w3.org/2000/svg">
<rect width="160" height="200" fill="#272727"/>
<path d="M28.8774 88.8537H24.3649L24.3407 86.3692H28.1293C28.797 86.3692 29.3439 86.2847 29.7703 86.1158C30.1966 85.939 30.5143 85.6857 30.7234 85.356C30.9407 85.0183 31.0492 84.6083 31.0492 84.1258C31.0492 83.5791 30.9447 83.1369 30.7355 82.7991C30.5344 82.4615 30.2167 82.2162 29.7823 82.0634C29.356 81.9106 28.805 81.8343 28.1293 81.8343H25.6197V96.5605H22V79H28.1293C29.1509 79 30.0639 79.0965 30.8683 79.2895C31.6807 79.4824 32.3684 79.7759 32.9314 80.1699C33.4945 80.5639 33.9249 81.0624 34.2225 81.6655C34.5201 82.2605 34.6689 82.968 34.6689 83.7881C34.6689 84.5118 34.504 85.1792 34.1742 85.7902C33.8525 86.4013 33.3417 86.8998 32.6419 87.2858C31.9501 87.6717 31.0452 87.8848 29.9271 87.925L28.8774 88.8537ZM28.7206 96.5605H23.3755L24.7872 93.7383H28.7206C29.356 93.7383 29.8748 93.6378 30.277 93.4368C30.6792 93.2277 30.9769 92.9463 31.1699 92.5925C31.3629 92.2387 31.4594 91.8327 31.4594 91.3744C31.4594 90.8598 31.371 90.4135 31.194 90.0357C31.0251 89.6577 30.7516 89.3682 30.3736 89.1672C29.9955 88.9582 29.4968 88.8537 28.8774 88.8537H25.3904L25.4146 86.3692H29.7582L30.5907 87.3461C31.6605 87.33 32.5213 87.519 33.1727 87.9129C33.8324 88.2989 34.3109 88.8014 34.6086 89.4205C34.9142 90.0397 35.0671 90.703 35.0671 91.4105C35.0671 92.5362 34.8217 93.485 34.3311 94.2569C33.8404 95.0207 33.1205 95.5957 32.1713 95.9816C31.2302 96.3676 30.0799 96.5605 28.7206 96.5605ZM45.5038 92.5684L48.9305 83.5107H51.7659L46.6742 96.5605H44.3335L39.2659 83.5107H42.1013L45.5038 92.5684ZM41.2688 83.5107V96.5605H37.7939V83.5107H41.2688ZM49.8233 96.5605V83.5107H53.2983V96.5605H49.8233ZM62.3474 96.8017C61.3339 96.8017 60.425 96.6409 59.6206 96.3193C58.8162 95.9896 58.1325 95.5354 57.5695 94.9564C57.0144 94.3775 56.5881 93.7062 56.2905 92.9423C55.9929 92.1704 55.8441 91.3502 55.8441 90.4819V89.9995C55.8441 89.0104 55.9849 88.1059 56.2663 87.2858C56.5479 86.4656 56.9501 85.754 57.4729 85.151C58.0038 84.5479 58.6473 84.0857 59.4034 83.764C60.1595 83.4344 61.0122 83.2695 61.9614 83.2695C62.8864 83.2695 63.7069 83.4223 64.4227 83.7278C65.1386 84.0334 65.7379 84.4676 66.2205 85.0304C66.7112 85.5932 67.0812 86.2686 67.3306 87.0566C67.5799 87.8365 67.7046 88.7049 67.7046 89.6617V91.109H57.3282V88.7934H64.29V88.5281C64.29 88.0456 64.2015 87.6154 64.0245 87.2375C63.8556 86.8515 63.5983 86.5461 63.2523 86.3209C62.9065 86.0958 62.4641 85.9832 61.9252 85.9832C61.4666 85.9832 61.0725 86.0837 60.7427 86.2847C60.4129 86.4858 60.1435 86.7671 59.9343 87.129C59.7332 87.4908 59.5804 87.9169 59.4759 88.4074C59.3793 88.8898 59.331 89.4205 59.331 89.9995V90.4819C59.331 91.0045 59.4034 91.487 59.5482 91.9292C59.7011 92.3714 59.9142 92.7533 60.1877 93.0749C60.4692 93.3966 60.8071 93.6459 61.2012 93.8227C61.6034 93.9996 62.0579 94.0881 62.5647 94.0881C63.192 94.0881 63.7752 93.9675 64.3142 93.7262C64.8611 93.4769 65.3316 93.1031 65.7258 92.6046L67.415 94.4378C67.1415 94.8318 66.7675 95.2097 66.2929 95.5715C65.8264 95.9333 65.2633 96.2308 64.6037 96.464C63.9442 96.6892 63.192 96.8017 62.3474 96.8017ZM75.0767 94.0881C75.503 94.0881 75.881 94.0076 76.2108 93.8468C76.5406 93.678 76.7981 93.4448 76.983 93.1473C77.1761 92.8418 77.2766 92.484 77.2847 92.0739H80.5545C80.5464 92.9905 80.3011 93.8066 79.8185 94.5222C79.3358 95.2298 78.6883 95.7886 77.8759 96.1987C77.0635 96.6007 76.1545 96.8017 75.1491 96.8017C74.1356 96.8017 73.2507 96.6329 72.4946 96.2952C71.7465 95.9575 71.1232 95.4911 70.6245 94.8961C70.1257 94.2931 69.7517 93.5935 69.5024 92.7975C69.253 91.9935 69.1283 91.1332 69.1283 90.2166V89.8667C69.1283 88.9421 69.253 88.0818 69.5024 87.2858C69.7517 86.4817 70.1257 85.7822 70.6245 85.1872C71.1232 84.5841 71.7465 84.1138 72.4946 83.776C73.2427 83.4384 74.1195 83.2695 75.1249 83.2695C76.1948 83.2695 77.1319 83.4746 77.9362 83.8847C78.7487 84.2947 79.3841 84.8817 79.8426 85.6455C80.3091 86.4013 80.5464 87.2978 80.5545 88.335H77.2847C77.2766 87.9009 77.1841 87.5069 77.0072 87.1531C76.8383 86.7993 76.5889 86.5179 76.2591 86.3089C75.9373 86.0917 75.5392 85.9832 75.0646 85.9832C74.5578 85.9832 74.1436 86.0917 73.8218 86.3089C73.5001 86.5179 73.2507 86.8074 73.0738 87.1772C72.8968 87.539 72.7722 87.9531 72.6998 88.4194C72.6354 88.8778 72.6033 89.3602 72.6033 89.8667V90.2166C72.6033 90.7231 72.6354 91.2095 72.6998 91.6759C72.7641 92.1422 72.8847 92.5563 73.0617 92.9181C73.2467 93.28 73.5001 93.5654 73.8218 93.7744C74.1436 93.9835 74.5618 94.0881 75.0767 94.0881ZM89.2176 83.5107V96.5605H85.7307V83.5107H89.2176ZM93.4165 83.5107V86.2003H81.5921V83.5107H93.4165ZM100.354 96.8017C99.3405 96.8017 98.432 96.6409 97.6275 96.3193C96.8229 95.9896 96.139 95.5354 95.5765 94.9564C95.0213 94.3775 94.5946 93.7062 94.2974 92.9423C93.9994 92.1704 93.8511 91.3502 93.8511 90.4819V89.9995C93.8511 89.0104 93.9914 88.1059 94.2734 87.2858C94.5547 86.4656 94.9566 85.754 95.4799 85.151C96.0104 84.5479 96.6543 84.0857 97.4102 83.764C98.166 83.4344 99.0193 83.2695 99.9684 83.2695C100.893 83.2695 101.713 83.4223 102.429 83.7278C103.145 84.0334 103.745 84.4676 104.227 85.0304C104.718 85.5932 105.088 86.2686 105.337 87.0566C105.586 87.8365 105.711 88.7049 105.711 89.6617V91.109H95.3345V88.7934H102.297V88.5281C102.297 88.0456 102.208 87.6154 102.031 87.2375C101.862 86.8515 101.605 86.5461 101.259 86.3209C100.913 86.0958 100.471 85.9832 99.9321 85.9832C99.4735 85.9832 99.0796 86.0837 98.7496 86.2847C98.4197 86.4858 98.15 86.7671 97.9407 87.129C97.7401 87.4908 97.5868 87.9169 97.4828 88.4074C97.3862 88.8898 97.3375 89.4205 97.3375 89.9995V90.4819C97.3375 91.0045 97.4102 91.487 97.5548 91.9292C97.7074 92.3714 97.9211 92.7533 98.1944 93.0749C98.4756 93.3966 98.8136 93.6459 99.2082 93.8227C99.6101 93.9996 100.064 94.0881 100.572 94.0881C101.199 94.0881 101.782 93.9675 102.321 93.7262C102.868 93.4769 103.338 93.1031 103.732 92.6046L105.421 94.4378C105.148 94.8318 104.774 95.2097 104.299 95.5715C103.833 95.9333 103.27 96.2308 102.61 96.464C101.951 96.6892 101.199 96.8017 100.354 96.8017Z" fill="#B1DF1D"/>
<path d="M41.0932 120.967C40.5076 121.055 40.0916 120.967 39.8452 120.705C39.5955 120.42 39.3503 120.088 39.1097 119.71C39.0526 119.327 39.0468 118.902 39.0922 118.435C39.1568 117.942 39.2518 117.421 39.3773 116.873C39.4994 116.303 39.6232 115.743 39.7486 115.195C39.7547 114.619 39.8319 114.055 39.9798 113.504C40.1278 112.952 40.2324 112.419 40.2936 111.904C40.3616 111.433 40.4217 110.987 40.4738 110.565C40.5452 110.117 40.6198 109.692 40.6979 109.289C40.6509 108.973 40.6668 108.695 40.7459 108.453C40.8441 108.185 40.9844 107.969 41.167 107.803C41.3496 107.638 41.5648 107.537 41.8125 107.5C42.0737 107.553 42.2606 107.571 42.3732 107.554C42.5084 107.534 42.6176 107.495 42.701 107.437C42.8036 107.352 43.035 107.283 43.3954 107.23C43.7557 107.176 44.1387 107.119 44.5441 107.058C44.9494 106.998 45.2519 106.941 45.4512 106.889C45.8307 106.809 46.1736 106.792 46.4799 106.839C46.7861 106.885 47.0856 106.887 47.3784 106.843C47.8783 106.953 48.3606 107.099 48.8256 107.283C49.3096 107.441 49.7023 107.682 50.0039 108.005C50.3279 108.325 50.5094 108.77 50.5482 109.339C50.5277 109.665 50.5381 110.043 50.5794 110.474C50.6432 110.902 50.5798 111.325 50.3892 111.745C50.3901 111.906 50.3279 112.261 50.2024 112.809C50.0736 113.334 49.9369 113.884 49.7923 114.458C49.6702 115.028 49.61 115.475 49.6121 115.797C49.5905 115.961 49.5707 116.136 49.5525 116.323C49.5343 116.51 49.5161 116.697 49.498 116.884C49.4808 117.231 49.4507 117.57 49.4076 117.898C49.3611 118.204 49.2533 118.485 49.0842 118.741C48.8159 119.103 48.4644 119.293 48.0298 119.312C47.5918 119.308 47.2028 119.171 46.8631 118.899C46.5232 118.627 46.3422 118.263 46.3201 117.806C46.2898 117.604 46.267 117.296 46.2516 116.884C46.2362 116.472 46.2242 116.083 46.2155 115.716C46.227 115.484 46.2564 115.296 46.3038 115.15C46.3704 114.979 46.4082 114.847 46.4173 114.754C46.5777 114.131 46.7072 113.456 46.8059 112.728C46.9269 111.996 47.0097 111.317 47.0542 110.689C47.0953 110.038 47.1003 109.531 47.069 109.168C46.7537 109.215 46.3854 109.292 45.9642 109.401C45.5621 109.484 45.1826 109.564 44.8256 109.64C44.4911 109.713 44.245 109.761 44.0873 109.785C43.9522 109.805 43.8751 109.828 43.8559 109.854C43.8333 109.857 43.8192 109.917 43.8135 110.033C43.7623 110.616 43.6649 111.275 43.5213 112.009C43.3968 112.718 43.3169 113.34 43.2816 113.875C43.2859 114.058 43.2377 114.353 43.1372 114.759C43.0333 115.143 42.9248 115.573 42.8118 116.051C42.6954 116.505 42.5999 116.945 42.5252 117.371C42.4472 117.774 42.4137 118.089 42.4248 118.318C42.3131 118.496 42.2533 118.712 42.2452 118.966C42.2596 119.217 42.2723 119.457 42.2834 119.685C42.2763 120.101 42.1477 120.396 41.8975 120.571C41.6665 120.721 41.3984 120.853 41.0932 120.967ZM56.2816 118.669C55.9888 118.712 55.7439 118.691 55.5469 118.606C55.3725 118.517 55.1463 118.389 54.8683 118.224C54.3732 117.837 53.9518 117.405 53.6043 116.928C53.2793 116.447 53.1221 116.01 53.1325 115.617C53.1732 115.427 53.1705 115.255 53.1245 115.1C53.0976 114.92 53.0842 114.83 53.0842 114.83C52.9548 114.734 52.9109 114.672 52.9526 114.643C52.9909 114.591 53.0259 114.517 53.0575 114.42C53.1927 114.4 53.2192 114.269 53.1372 114.028C53.0654 113.855 53.0758 113.462 53.1687 112.85C53.2807 112.212 53.4653 111.597 53.7226 111.007C53.8241 110.761 53.9832 110.438 54.1997 110.038C54.4129 109.615 54.6503 109.2 54.9119 108.792C55.1926 108.359 55.4514 108.01 55.6881 107.745C56.1806 107.188 56.6415 106.728 57.0708 106.365C57.5227 105.998 57.988 105.722 58.4667 105.535C58.9454 105.349 59.4438 105.217 59.9618 105.14C60.5024 105.059 60.9685 105.174 61.3601 105.484C61.9117 105.632 62.3174 105.882 62.5772 106.234C62.8595 106.584 63.0798 107.057 63.238 107.655C63.4064 108.32 63.4631 109.163 63.4082 110.184C63.3499 111.183 62.966 112.391 62.2565 113.808C61.8144 114.703 61.3566 115.415 60.8832 115.946C60.4098 116.477 59.875 116.982 59.279 117.463C58.853 117.848 58.3748 118.115 57.8444 118.263C57.3138 118.411 56.7929 118.547 56.2816 118.669ZM59.113 114.035C59.5447 113.533 59.8233 113.009 59.9488 112.461C60.0968 111.909 60.2426 111.266 60.3862 110.531C60.4562 110.383 60.4788 110.149 60.4544 109.831C60.4524 109.509 60.4183 109.203 60.3522 108.914C60.2826 108.602 60.1769 108.433 60.035 108.409C59.8088 108.281 59.601 108.278 59.4118 108.398C59.2191 108.496 58.982 108.681 58.7002 108.953C58.1085 109.616 57.5752 110.363 57.1005 111.194C56.6449 111.998 56.3834 112.946 56.316 114.038C56.3324 114.611 56.4525 115.03 56.6763 115.296C56.9194 115.536 57.2465 115.568 57.6576 115.391C58.088 115.189 58.5731 114.737 59.113 114.035ZM94.1102 114.929C94.0339 115.032 93.8231 115.087 93.4786 115.092C93.1371 115.12 92.8436 115.003 92.5972 114.74C92.3925 114.448 92.2486 114.102 92.1657 113.7C92.0827 113.298 91.9988 112.735 91.9138 112.011C91.9314 111.203 92.0021 110.134 92.126 108.803C92.2499 107.473 92.3857 105.991 92.5335 104.358C92.7005 102.699 92.8623 101.007 93.0192 99.2802C93.1044 98.462 93.1632 97.7744 93.1952 97.2172C93.2497 96.6567 93.2795 96.238 93.2839 95.9611C93.3078 95.6584 93.3195 95.507 93.3195 95.507C93.3042 95.5554 93.2766 95.6055 93.2388 95.6572C93.2228 95.7056 93.2068 95.7539 93.1908 95.8023C93.1756 95.8508 93.1596 95.8992 93.1436 95.9476C93.1436 95.9476 93.1102 96.0331 93.0439 96.2041C92.9998 96.3717 92.8825 96.6654 92.6918 97.0851C92.5519 97.3821 92.43 97.7225 92.326 98.1062C92.2221 98.49 92.0224 99.003 91.7268 99.6455C91.4672 100.375 91.1777 101.212 90.8582 102.157C90.5387 103.102 90.26 103.857 90.0219 104.422C89.9012 104.693 89.7866 104.929 89.6784 105.129C89.5926 105.326 89.5357 105.484 89.5074 105.603C89.4543 105.865 89.3532 106.19 89.2042 106.581C89.0553 106.971 88.8708 107.355 88.6509 107.733C88.546 107.956 88.4011 108.219 88.2161 108.523C88.0537 108.824 87.9105 109.098 87.7864 109.347C87.659 109.573 87.5952 109.686 87.5952 109.686C87.5704 109.828 87.4558 110.063 87.2518 110.393C87.0477 110.723 86.7923 111.094 86.4857 111.508C86.1982 111.896 85.8961 112.264 85.5794 112.61C84.8852 113.358 84.2907 113.849 83.7962 114.084C83.3242 114.316 82.7213 114.21 81.9875 113.767C81.641 113.45 81.3508 113.125 81.1168 112.792C80.8795 112.436 80.7122 111.932 80.6148 111.279C80.5174 110.626 80.494 109.697 80.5446 108.493C80.5914 107.726 80.6427 106.913 80.6987 106.053C80.7771 105.19 80.8606 104.361 80.9492 103.565C81.0343 102.747 81.1137 102.045 81.1874 101.458C81.2803 100.846 81.3437 100.422 81.3777 100.187C81.3613 99.6141 81.3289 99.3197 81.2805 99.3039C81.2287 99.2656 81.1346 99.4062 80.9981 99.7257C80.8773 99.9969 80.6618 100.558 80.3514 101.41C80.041 102.262 79.6944 103.257 79.3117 104.396C78.9515 105.531 78.6026 106.665 78.265 107.797C77.5968 109.646 77.033 111.191 76.5737 112.434C76.1143 113.676 75.734 114.676 75.4326 115.434C75.128 116.17 74.8883 116.724 74.7134 117.095C74.5644 117.486 74.4437 117.757 74.3513 117.909C74.2847 118.08 74.2322 118.191 74.1938 118.243C73.8527 118.271 73.5363 118.157 73.245 117.901C72.9535 117.645 72.6987 117.326 72.4806 116.945C72.402 116.726 72.3329 116.495 72.2735 116.251C72.214 116.006 72.1962 115.733 72.2201 115.43C72.2632 115.101 72.348 114.743 72.4744 114.356C72.6799 113.727 72.8875 113.19 73.0974 112.745C73.3072 112.299 73.4392 112.026 73.4933 111.926C73.5824 111.752 73.6473 111.569 73.688 111.379C73.7287 111.189 73.7485 111.013 73.7476 110.852C73.84 110.701 73.967 110.394 74.1284 109.933C74.3124 109.468 74.4912 108.97 74.6651 108.437C74.8016 108.118 74.9889 107.675 75.227 107.111C75.4617 106.523 75.714 105.899 75.9836 105.237C76.25 104.553 76.4796 103.932 76.6727 103.374C77.3983 101.448 77.9751 99.9117 78.4028 98.7662C78.8272 97.5982 79.1414 96.8494 79.3455 96.5198C79.4864 96.3837 79.5896 96.1497 79.6553 95.8177C79.74 95.4599 79.8157 95.1954 79.8822 95.0244C80.1036 94.347 80.3416 93.7822 80.5965 93.3299C80.8705 92.8518 81.1314 92.5942 81.3792 92.5573C81.5594 92.5305 81.7947 92.5645 82.0851 92.6592C82.3981 92.7507 82.7082 92.9001 83.0154 93.1074C83.3068 93.3632 83.5908 93.7236 83.8674 94.1887C84.1632 94.628 84.3023 95.2517 84.2847 96.0598C84.3159 96.4233 84.3251 96.8708 84.3122 97.402C84.296 97.9108 84.2798 98.4195 84.2636 98.9283C84.2474 99.437 84.2194 99.8669 84.1797 100.218C84.1507 101.258 84.0924 102.256 84.0049 103.213C83.9365 104.144 83.8693 105.005 83.8033 105.798C83.7374 106.59 83.6917 107.287 83.6664 107.89C83.6378 108.469 83.6278 108.942 83.6365 109.309C83.6677 109.673 83.748 109.903 83.8774 109.998C83.9483 110.011 84.0351 109.975 84.1376 109.891C84.2593 109.78 84.3473 109.675 84.4014 109.575C84.5096 109.375 84.6067 109.176 84.6924 108.979C84.7782 108.783 84.891 108.536 85.0309 108.239C85.3174 107.689 85.6084 107.094 85.904 106.451C86.2186 105.783 86.5808 104.969 86.9904 104.011C87.4191 103.026 87.919 101.824 88.49 100.404C89.0577 98.9617 89.7471 97.1788 90.5586 95.0555C90.959 94.1903 91.337 93.3284 91.6924 92.4699C92.0479 91.6115 92.3851 90.9397 92.7043 90.455C92.9883 90.0444 93.3863 89.8584 93.8987 89.8971C94.4336 89.9325 94.9489 90.1434 95.4438 90.5299C95.9388 90.9164 96.2578 91.4327 96.4003 92.0789C96.4693 92.3908 96.486 92.9637 96.449 93.7977C96.4315 94.6059 96.3727 95.5237 96.2731 96.5513C96.1728 97.5788 96.0362 98.5889 95.8617 99.5815C95.8508 99.9743 95.8138 100.498 95.7505 101.152C95.6866 101.805 95.6139 102.472 95.5311 103.152C95.4482 103.832 95.3668 104.442 95.2861 104.984C95.2425 105.773 95.1982 106.401 95.1524 106.868C95.1299 107.332 95.1618 107.856 95.2491 108.441C95.1001 108.832 95.0427 109.37 95.0754 110.055C95.1088 110.741 95.1793 111.444 95.2869 112.164C95.3276 113.056 95.2287 113.704 94.9896 114.107C94.773 114.508 94.6175 114.704 94.5245 114.695C94.3341 114.654 94.196 114.732 94.1102 114.929ZM108.774 111.19C108.039 111.046 107.399 110.693 106.855 110.129C106.329 109.54 105.925 108.91 105.641 108.239C105.563 108.342 105.487 108.446 105.41 108.549C105.353 108.627 105.276 108.73 105.18 108.86C104.896 109.27 104.558 109.701 104.164 110.151C103.771 110.6 103.358 110.996 102.925 111.336C102.489 111.655 102.031 111.826 101.552 111.852C101.154 111.658 100.77 111.474 100.398 111.299C100.046 111.098 99.7478 110.797 99.5043 110.396C99.5007 110.374 99.4876 110.364 99.4651 110.368C99.4651 110.368 99.4636 110.356 99.46 110.334C99.2027 109.843 98.9985 109.402 98.8481 109.01C98.7165 108.592 98.6555 108.026 98.6635 107.311C98.6947 106.593 98.8059 105.564 98.9978 104.223C99.0748 103.66 99.1628 103.094 99.2623 102.527C99.359 101.937 99.4636 101.404 99.5763 100.927C99.686 100.427 99.7958 100.008 99.907 99.669C100.017 99.3303 100.134 99.1058 100.255 98.9957C100.368 98.9788 100.469 98.9638 100.56 98.9503C100.646 98.9144 100.735 98.8897 100.825 98.8762C101.028 98.846 101.292 98.9217 101.619 99.1032C101.815 99.1889 102.002 99.2876 102.18 99.3991C102.381 99.5073 102.512 99.6144 102.574 99.7203C102.746 99.9477 102.775 100.45 102.66 101.226C102.546 102.003 102.396 102.854 102.212 103.779C102.047 104.678 101.903 105.563 101.779 106.432C101.674 107.277 101.701 107.917 101.858 108.354C102.096 108.249 102.31 108.137 102.499 108.017C102.707 107.871 102.89 107.705 103.047 107.521C103.389 107.194 103.691 106.826 103.953 106.419C104.215 106.012 104.43 105.6 104.598 105.184C104.785 104.742 104.921 104.342 105.005 103.984C105.131 103.436 105.244 102.959 105.345 102.552C105.442 102.124 105.516 101.767 105.565 101.484C105.611 101.178 105.631 100.922 105.623 100.716C105.638 100.506 105.634 100.323 105.61 100.165C105.527 99.7633 105.529 99.4639 105.614 99.267C105.719 99.0443 105.937 98.8047 106.267 98.5483C106.447 98.5215 106.629 98.5059 106.813 98.5015C106.993 98.4747 107.163 98.4608 107.324 98.4597C107.528 98.5905 107.735 98.7437 107.946 98.9195C108.175 99.0694 108.394 99.221 108.601 99.3742C108.858 99.8652 108.928 100.488 108.81 101.242C108.711 101.97 108.596 102.735 108.462 103.538C108.332 104.363 108.247 105.181 108.206 105.992C108.186 106.778 108.399 107.437 108.846 107.968C109.161 107.76 109.45 107.533 109.712 107.287C109.971 107.018 110.23 106.749 110.49 106.481C110.748 106.212 111.011 105.965 111.277 105.742C111.671 105.913 112.011 106.265 112.298 106.798C112.585 107.33 112.759 107.799 112.819 108.205C112.764 108.305 112.698 108.395 112.618 108.476C112.56 108.554 112.491 108.633 112.411 108.714C112.282 109.079 112.007 109.476 111.588 109.907C111.165 110.315 110.697 110.65 110.184 110.91C109.67 111.171 109.2 111.264 108.774 111.19ZM116.525 116.317C116.223 116.454 115.885 116.424 115.51 116.227C115.158 116.026 114.86 115.725 114.616 115.325C114.395 114.92 114.329 114.481 114.419 114.007C114.445 113.866 114.478 113.63 114.522 113.302C114.568 112.996 114.586 112.728 114.575 112.5C114.573 112.339 114.601 112.059 114.656 111.659C114.715 111.282 114.786 110.903 114.867 110.523C114.971 110.139 115.056 109.862 115.123 109.691C115.224 109.446 115.275 109.173 115.277 108.874C115.301 108.571 115.301 108.341 115.278 108.183C115.299 108.019 115.328 107.831 115.366 107.618C115.426 107.402 115.492 107.231 115.565 107.105C115.584 106.918 115.623 106.716 115.682 106.5C115.739 106.262 115.812 106.055 115.901 105.881C115.922 105.717 115.928 105.52 115.916 105.292C115.928 105.06 115.977 104.926 116.064 104.89C116.073 104.797 116.071 104.705 116.057 104.615C116.067 104.521 116.093 104.391 116.137 104.223C116.145 103.969 116.193 103.594 116.28 103.097C116.367 102.601 116.481 102.055 116.623 101.458C116.773 100.768 116.858 100.18 116.877 99.694C116.894 99.1853 116.723 98.8885 116.365 98.8038C116.172 98.7406 116.028 98.5548 115.936 98.2463C115.841 97.9152 115.813 97.5742 115.852 97.223C115.892 96.8719 115.997 96.6491 116.167 96.5547C116.357 96.4344 116.596 96.3412 116.885 96.2751C117.175 96.2089 117.434 96.1703 117.663 96.1593C117.91 96.1223 118.026 96.1281 118.01 96.1765C118.027 96.289 118.094 96.3481 118.209 96.3539C118.244 96.2796 118.35 96.3675 118.526 96.6175C118.72 96.8417 118.909 97.1013 119.09 97.3964C119.273 97.6914 119.372 97.8953 119.389 98.0078C119.357 98.1046 119.343 98.1642 119.347 98.1867C119.347 98.1867 119.392 98.18 119.481 98.1666C119.481 98.1666 119.597 98.0918 119.828 97.9423C120.055 97.7703 120.293 97.5853 120.539 97.3874C120.805 97.1637 120.977 97.0001 121.053 96.8966C121.053 96.8966 121.106 96.8657 121.212 96.8039C121.337 96.7162 121.438 96.6206 121.515 96.5171C121.938 96.2699 122.417 96.1639 122.952 96.1993C123.51 96.2312 123.968 96.3701 124.327 96.6158C124.862 97.1115 125.303 97.759 125.653 98.5585C126.025 99.3546 126.112 100.17 125.915 101.005C125.886 101.124 125.814 101.331 125.696 101.625C125.598 101.892 125.498 102.149 125.396 102.394C125.291 102.617 125.239 102.728 125.239 102.728C124.842 103.616 124.368 104.377 123.818 105.012C123.291 105.642 122.697 106.214 122.037 106.727C121.835 106.918 121.541 107.112 121.156 107.307C120.793 107.499 120.448 107.654 120.12 107.772C119.815 107.887 119.625 107.926 119.551 107.892C119.276 107.748 118.994 107.399 118.704 106.844C118.635 107.154 118.566 107.463 118.497 107.772C118.447 108.056 118.418 108.245 118.409 108.338C118.41 108.499 118.407 108.637 118.402 108.753C118.393 108.847 118.348 108.934 118.268 109.015C118.268 109.015 118.263 109.062 118.254 109.155C118.245 109.248 118.187 109.395 118.079 109.596C117.951 110.282 117.846 110.815 117.765 111.196C117.686 111.599 117.619 111.919 117.563 112.158C117.532 112.416 117.503 112.685 117.476 112.965C117.521 113.58 117.471 114.243 117.323 114.955C117.199 115.664 116.933 116.118 116.525 116.317ZM119.922 104.591C120.005 104.533 120.151 104.43 120.36 104.284C120.59 104.135 120.841 103.959 121.11 103.758C121.376 103.534 121.621 103.325 121.845 103.131C122.089 102.91 122.257 102.724 122.349 102.572C122.499 102.343 122.577 102.17 122.582 102.054C122.585 101.916 122.609 101.693 122.656 101.387C122.697 101.197 122.745 100.983 122.802 100.744C122.858 100.506 122.905 100.28 122.942 100.067C123.005 99.8737 123.013 99.6886 122.963 99.5118C122.933 99.3092 122.84 99.1504 122.685 99.0355C122.591 99.0264 122.383 99.0921 122.058 99.2325C121.756 99.3695 121.412 99.605 121.024 99.939C120.659 100.27 120.312 100.724 119.984 101.302C119.602 101.981 119.369 102.579 119.285 103.098C119.198 103.594 119.221 103.982 119.355 104.261C119.485 104.518 119.675 104.628 119.922 104.591ZM132.533 115.761C132.446 115.797 132.306 115.783 132.112 115.72C131.941 115.653 131.783 115.516 131.637 115.308C131.49 115.099 131.413 114.812 131.404 114.445C131.267 114.143 131.219 113.747 131.262 113.258C131.329 112.787 131.51 112.07 131.804 111.105C131.975 110.712 132.114 110.254 132.22 109.731C132.35 109.206 132.501 108.677 132.674 108.145C132.757 107.925 132.896 107.548 133.092 107.012C133.312 106.473 133.539 105.841 133.776 105.115C134.033 104.364 134.252 103.594 134.434 102.808C133.939 103.503 133.518 104.153 133.171 104.757C132.842 105.335 132.533 105.807 132.242 106.172C131.97 106.512 131.653 106.698 131.289 106.729C130.986 106.705 130.608 106.566 130.156 106.311C129.703 106.056 129.392 105.746 129.223 105.38C129.059 104.898 128.931 104.272 128.839 103.504C128.77 102.731 128.743 101.55 128.759 99.9596C128.825 99.1673 128.817 98.5702 128.734 98.1683C128.67 97.7405 128.567 97.4337 128.424 97.2479C128.281 97.0621 128.108 96.9038 127.905 96.773C127.571 96.5465 127.505 96.2572 127.705 95.9051C127.907 95.5529 128.152 95.2745 128.445 95.07C128.901 94.8869 129.269 94.8089 129.549 94.8362C129.849 94.8376 130.17 94.9853 130.514 95.2794C130.738 95.5452 130.964 95.8336 131.195 96.1444C131.426 96.4553 131.588 96.9259 131.682 97.5563C131.722 97.8265 131.756 98.1321 131.784 98.4732C131.809 98.7917 131.83 99.0878 131.847 99.3613C131.866 99.6348 131.875 99.852 131.876 100.013C131.775 100.88 131.679 101.63 131.59 102.265C131.501 102.9 131.512 103.209 131.625 103.192C132.022 102.765 132.352 102.359 132.617 101.974C132.905 101.586 133.205 101.127 133.517 100.597C133.829 100.067 134.21 99.3774 134.659 98.528C134.805 98.115 134.951 97.7133 135.1 97.3229C135.249 96.9324 135.363 96.5358 135.441 96.1329C135.533 95.8201 135.667 95.4892 135.846 95.1404C136.02 94.7692 136.151 94.5656 136.238 94.5296C136.344 94.4678 136.503 94.4556 136.716 94.4929C136.929 94.5302 137.132 94.5805 137.326 94.6437C137.539 94.681 137.648 94.7222 137.655 94.7672C137.681 94.7863 137.797 94.7921 138.003 94.7844C138.209 94.7767 138.415 94.769 138.621 94.7613C138.824 94.7311 138.931 94.7497 138.941 94.8173C138.947 94.8623 138.904 95.0413 138.813 95.3541C138.744 95.6636 138.658 96.0101 138.554 96.3938C138.45 96.7776 138.352 97.1258 138.261 97.4387C138.188 97.7256 138.167 97.89 138.196 97.9317C138.248 97.9699 138.239 98.1439 138.17 98.4533C138.098 98.7403 138.008 99.0644 137.901 99.4256C137.816 99.7835 137.738 100.106 137.665 100.393C137.551 101.169 137.403 101.951 137.221 102.738C137.036 103.502 136.794 104.274 136.496 105.055C136.401 105.345 136.26 105.792 136.074 106.395C135.911 106.995 135.745 107.584 135.578 108.161C135.437 108.757 135.32 109.212 135.229 109.525C135.166 109.718 135.072 110.02 134.949 110.429C134.852 110.858 134.737 111.324 134.605 111.827C134.496 112.327 134.381 112.793 134.261 113.225C134.145 113.679 134.058 114.026 134.001 114.265C134.02 114.699 133.966 115.029 133.839 115.255C133.666 115.488 133.4 115.632 133.039 115.685C132.701 115.736 132.533 115.761 132.533 115.761Z" fill="white"/>
</svg>
