<svg width="374" height="263" viewBox="0 0 374 263" fill="none" xmlns="http://www.w3.org/2000/svg">
<rect width="374" height="263" fill="#272727"/>
<path d="M78.4098 107.646H68.955L68.9044 102.44H76.8424C78.2412 102.44 79.3873 102.263 80.2805 101.909C81.1738 101.539 81.8395 101.008 82.2776 100.317C82.7328 99.6099 82.9603 98.7508 82.9603 97.7399C82.9603 96.5943 82.7412 95.6678 82.3029 94.9601C81.8816 94.2526 81.216 93.7387 80.3058 93.4186C79.4126 93.0985 78.2581 92.9385 76.8424 92.9385H71.5841V123.794H64V87H76.8424C78.9828 87 80.8957 87.2022 82.5811 87.6065C84.2833 88.0108 85.7243 88.6257 86.904 89.4512C88.0838 90.2767 88.9854 91.3212 89.609 92.5848C90.2326 93.8314 90.5443 95.3139 90.5443 97.0322C90.5443 98.5485 90.1989 99.9469 89.5079 101.227C88.8338 102.508 87.7636 103.552 86.2973 104.361C84.8479 105.169 82.9518 105.616 80.6091 105.7L78.4098 107.646ZM78.0812 123.794H66.882L69.8398 117.88H78.0812C79.4126 117.88 80.4997 117.67 81.3424 117.249C82.1851 116.81 82.8086 116.221 83.2131 115.48C83.6175 114.738 83.8198 113.888 83.8198 112.927C83.8198 111.849 83.6344 110.914 83.2636 110.122C82.9097 109.331 82.3367 108.724 81.5446 108.303C80.7524 107.865 79.7075 107.646 78.4098 107.646H71.1038L71.1543 102.44H80.2553L81.9996 104.487C84.2411 104.453 86.0445 104.849 87.4095 105.675C88.7916 106.483 89.7943 107.536 90.4179 108.834C91.0584 110.131 91.3786 111.521 91.3786 113.003C91.3786 115.362 90.8645 117.35 89.8365 118.967C88.8085 120.567 87.3 121.772 85.3113 122.581C83.3395 123.389 80.9294 123.794 78.0812 123.794ZM113.246 115.429L120.426 96.4511H126.367L115.698 123.794H110.794L100.176 96.4511H106.117L113.246 115.429ZM104.373 96.4511V123.794H97.0919V96.4511H104.373ZM122.296 123.794V96.4511H129.577V123.794H122.296ZM148.537 124.299C146.414 124.299 144.509 123.962 142.824 123.288C141.139 122.597 139.706 121.646 138.526 120.433C137.364 119.22 136.47 117.813 135.847 116.212C135.223 114.595 134.911 112.877 134.911 111.057V110.047C134.911 107.974 135.206 106.079 135.796 104.361C136.386 102.642 137.229 101.151 138.324 99.8878C139.437 98.6243 140.785 97.6557 142.369 96.9817C143.953 96.2911 145.74 95.9457 147.729 95.9457C149.667 95.9457 151.386 96.2658 152.886 96.9059C154.386 97.5461 155.641 98.4559 156.652 99.6351C157.681 100.814 158.456 102.23 158.978 103.881C159.501 105.515 159.762 107.334 159.762 109.339V112.371H138.021V107.519H152.608V106.964C152.608 105.953 152.422 105.051 152.051 104.26C151.697 103.451 151.158 102.811 150.433 102.339C149.709 101.867 148.782 101.631 147.653 101.631C146.692 101.631 145.866 101.842 145.175 102.263C144.484 102.684 143.92 103.274 143.481 104.032C143.06 104.79 142.74 105.683 142.521 106.711C142.318 107.722 142.217 108.834 142.217 110.047V111.057C142.217 112.152 142.369 113.163 142.672 114.09C142.993 115.016 143.439 115.816 144.012 116.49C144.602 117.164 145.31 117.687 146.136 118.057C146.979 118.428 147.931 118.613 148.993 118.613C150.307 118.613 151.529 118.36 152.658 117.855C153.804 117.333 154.79 116.549 155.616 115.505L159.155 119.346C158.582 120.171 157.798 120.963 156.804 121.721C155.827 122.479 154.647 123.103 153.265 123.591C151.883 124.063 150.307 124.299 148.537 124.299ZM175.208 118.613C176.102 118.613 176.894 118.445 177.585 118.108C178.276 117.754 178.815 117.265 179.203 116.642C179.607 116.002 179.818 115.252 179.835 114.393H186.686C186.669 116.313 186.155 118.023 185.143 119.523C184.132 121.005 182.776 122.176 181.073 123.035C179.371 123.878 177.467 124.299 175.36 124.299C173.236 124.299 171.382 123.945 169.798 123.238C168.231 122.53 166.925 121.553 165.88 120.306C164.835 119.043 164.051 117.577 163.529 115.909C163.006 114.224 162.745 112.422 162.745 110.501V109.768C162.745 107.831 163.006 106.029 163.529 104.361C164.051 102.676 164.835 101.21 165.88 99.9636C166.925 98.7001 168.231 97.7146 169.798 97.007C171.366 96.2995 173.203 95.9457 175.309 95.9457C177.551 95.9457 179.514 96.3753 181.2 97.2345C182.902 98.0936 184.233 99.3235 185.194 100.924C186.171 102.508 186.669 104.386 186.686 106.559H179.835C179.818 105.65 179.624 104.824 179.253 104.083C178.899 103.341 178.377 102.752 177.686 102.314C177.012 101.859 176.177 101.631 175.183 101.631C174.121 101.631 173.253 101.859 172.579 102.314C171.905 102.752 171.382 103.358 171.012 104.133C170.641 104.891 170.38 105.759 170.228 106.736C170.093 107.696 170.026 108.707 170.026 109.768V110.501C170.026 111.563 170.093 112.582 170.228 113.559C170.363 114.536 170.616 115.404 170.986 116.162C171.374 116.92 171.905 117.518 172.579 117.956C173.253 118.394 174.13 118.613 175.208 118.613ZM204.837 96.4511V123.794H197.531V96.4511H204.837ZM213.635 96.4511V102.086H188.86V96.4511H213.635ZM228.171 124.299C226.047 124.299 224.143 123.962 222.458 123.288C220.772 122.597 219.339 121.646 218.16 120.433C216.997 119.22 216.103 117.813 215.48 116.212C214.856 114.595 214.545 112.877 214.545 111.057V110.047C214.545 107.974 214.839 106.079 215.43 104.361C216.019 102.642 216.861 101.151 217.958 99.8878C219.069 98.6243 220.419 97.6557 222.002 96.9817C223.586 96.2911 225.374 95.9457 227.362 95.9457C229.299 95.9457 231.019 96.2658 232.518 96.9059C234.018 97.5461 235.275 98.4559 236.286 99.6351C237.314 100.814 238.089 102.23 238.611 103.881C239.133 105.515 239.395 107.334 239.395 109.339V112.371H217.653V107.519H232.241V106.964C232.241 105.953 232.056 105.051 231.684 104.26C231.331 103.451 230.792 102.811 230.067 102.339C229.342 101.867 228.415 101.631 227.286 101.631C226.325 101.631 225.5 101.842 224.809 102.263C224.117 102.684 223.552 103.274 223.114 104.032C222.694 104.79 222.372 105.683 222.154 106.711C221.952 107.722 221.85 108.834 221.85 110.047V111.057C221.85 112.152 222.002 113.163 222.305 114.09C222.625 115.016 223.073 115.816 223.645 116.49C224.235 117.164 224.943 117.687 225.77 118.057C226.612 118.428 227.563 118.613 228.626 118.613C229.94 118.613 231.162 118.36 232.292 117.855C233.437 117.333 234.423 116.549 235.249 115.505L238.788 119.346C238.215 120.171 237.431 120.963 236.437 121.721C235.46 122.479 234.28 123.103 232.898 123.591C231.516 124.063 229.94 124.299 228.171 124.299Z" fill="#B1DF1D"/>
<path d="M104.005 174.932C102.778 175.115 101.906 174.931 101.39 174.381C100.867 173.784 100.353 173.089 99.8489 172.296C99.7293 171.494 99.7171 170.604 99.8123 169.626C99.9477 168.593 100.147 167.502 100.41 166.354C100.666 165.158 100.925 163.987 101.188 162.838C101.2 161.631 101.362 160.449 101.672 159.294C101.982 158.139 102.201 157.021 102.33 155.941C102.472 154.956 102.598 154.02 102.707 153.136C102.857 152.198 103.013 151.306 103.177 150.462C103.078 149.802 103.112 149.218 103.277 148.711C103.483 148.15 103.777 147.697 104.16 147.35C104.542 147.004 104.993 146.792 105.512 146.715C106.059 146.826 106.451 146.864 106.687 146.829C106.97 146.787 107.199 146.704 107.374 146.582C107.588 146.405 108.073 146.26 108.828 146.148C109.583 146.035 110.386 145.916 111.235 145.789C112.085 145.662 112.718 145.544 113.136 145.434C113.931 145.267 114.65 145.232 115.291 145.329C115.933 145.426 116.56 145.429 117.174 145.338C118.221 145.568 119.232 145.875 120.206 146.26C121.22 146.591 122.043 147.096 122.675 147.773C123.354 148.443 123.734 149.375 123.815 150.569C123.772 151.25 123.794 152.042 123.881 152.946C124.014 153.842 123.882 154.73 123.482 155.609C123.484 155.946 123.354 156.689 123.091 157.837C122.821 158.939 122.534 160.09 122.231 161.293C121.976 162.488 121.85 163.423 121.854 164.098C121.809 164.442 121.767 164.81 121.729 165.201C121.691 165.593 121.653 165.984 121.615 166.376C121.579 167.104 121.516 167.813 121.425 168.502C121.328 169.143 121.102 169.731 120.748 170.266C120.186 171.025 119.449 171.424 118.539 171.464C117.621 171.456 116.806 171.167 116.094 170.598C115.382 170.029 115.003 169.266 114.956 168.309C114.893 167.884 114.845 167.24 114.813 166.377C114.781 165.514 114.756 164.698 114.737 163.929C114.761 163.443 114.823 163.048 114.922 162.744C115.062 162.386 115.141 162.109 115.16 161.913C115.496 160.609 115.768 159.194 115.974 157.669C116.228 156.136 116.401 154.712 116.495 153.396C116.581 152.033 116.591 150.97 116.526 150.209C115.865 150.307 115.093 150.47 114.211 150.698C113.368 150.872 112.573 151.039 111.825 151.198C111.124 151.351 110.609 151.452 110.278 151.501C109.995 151.544 109.833 151.592 109.793 151.646C109.746 151.653 109.717 151.778 109.705 152.021C109.597 153.242 109.393 154.623 109.092 156.163C108.832 157.648 108.664 158.951 108.59 160.071C108.599 160.456 108.498 161.073 108.288 161.925C108.07 162.729 107.842 163.631 107.606 164.63C107.362 165.583 107.162 166.505 107.005 167.396C106.842 168.24 106.772 168.902 106.795 169.38C106.561 169.753 106.435 170.206 106.419 170.739C106.449 171.264 106.475 171.767 106.499 172.246C106.484 173.116 106.214 173.735 105.69 174.102C105.206 174.415 104.644 174.692 104.005 174.932ZM135.828 170.116C135.215 170.207 134.702 170.163 134.289 169.984C133.923 169.797 133.449 169.53 132.867 169.183C131.83 168.373 130.947 167.468 130.219 166.468C129.538 165.46 129.208 164.545 129.23 163.722C129.315 163.323 129.31 162.962 129.213 162.639C129.157 162.262 129.129 162.073 129.129 162.073C128.858 161.872 128.766 161.741 128.853 161.68C128.933 161.572 129.007 161.416 129.073 161.213C129.356 161.171 129.412 160.898 129.24 160.393C129.089 160.03 129.111 159.206 129.306 157.924C129.541 156.587 129.927 155.299 130.466 154.062C130.679 153.548 131.012 152.871 131.466 152.032C131.913 151.146 132.41 150.276 132.958 149.423C133.547 148.515 134.089 147.783 134.585 147.227C135.617 146.061 136.582 145.097 137.482 144.336C138.429 143.568 139.403 142.989 140.406 142.598C141.409 142.208 142.454 141.931 143.539 141.77C144.672 141.601 145.648 141.841 146.469 142.49C147.625 142.8 148.475 143.324 149.019 144.063C149.611 144.795 150.072 145.787 150.404 147.039C150.756 148.433 150.875 150.2 150.76 152.339C150.638 154.431 149.834 156.961 148.347 159.932C147.421 161.806 146.461 163.299 145.47 164.411C144.478 165.523 143.357 166.583 142.108 167.589C141.216 168.397 140.214 168.956 139.102 169.266C137.991 169.577 136.9 169.86 135.828 170.116ZM141.761 160.407C142.665 159.356 143.249 158.256 143.512 157.108C143.822 155.953 144.127 154.605 144.428 153.066C144.575 152.754 144.622 152.265 144.571 151.598C144.567 150.923 144.496 150.283 144.357 149.677C144.211 149.023 143.99 148.67 143.692 148.618C143.219 148.351 142.783 148.344 142.387 148.596C141.983 148.801 141.486 149.188 140.896 149.758C139.656 151.149 138.539 152.714 137.544 154.453C136.589 156.139 136.041 158.125 135.9 160.413C135.935 161.613 136.186 162.492 136.655 163.049C137.164 163.551 137.85 163.618 138.711 163.249C139.613 162.825 140.629 161.878 141.761 160.407ZM215.088 162.28C214.928 162.497 214.487 162.611 213.765 162.622C213.049 162.68 212.434 162.434 211.918 161.884C211.489 161.273 211.188 160.547 211.014 159.705C210.84 158.862 210.664 157.683 210.486 156.167C210.523 154.473 210.671 152.233 210.931 149.446C211.19 146.658 211.475 143.554 211.784 140.132C212.134 136.656 212.473 133.11 212.802 129.492C212.981 127.778 213.104 126.337 213.171 125.17C213.285 123.995 213.348 123.118 213.357 122.538C213.407 121.904 213.431 121.586 213.431 121.586C213.399 121.688 213.341 121.793 213.262 121.901C213.229 122.002 213.195 122.104 213.162 122.205C213.13 122.307 213.096 122.408 213.063 122.509C213.063 122.509 212.993 122.689 212.854 123.047C212.761 123.398 212.516 124.013 212.116 124.893C211.823 125.515 211.568 126.228 211.35 127.032C211.132 127.836 210.714 128.911 210.094 130.258C209.55 131.785 208.944 133.539 208.274 135.52C207.605 137.5 207.021 139.082 206.522 140.266C206.269 140.834 206.029 141.328 205.802 141.747C205.623 142.16 205.503 142.491 205.444 142.741C205.333 143.288 205.121 143.971 204.809 144.789C204.497 145.607 204.11 146.412 203.649 147.204C203.43 147.67 203.126 148.222 202.739 148.859C202.398 149.488 202.098 150.063 201.838 150.584C201.571 151.058 201.438 151.295 201.438 151.295C201.386 151.592 201.146 152.086 200.718 152.776C200.29 153.467 199.755 154.246 199.113 155.113C198.511 155.926 197.878 156.696 197.214 157.422C195.759 158.989 194.514 160.018 193.478 160.51C192.489 160.995 191.226 160.774 189.688 159.845C188.962 159.182 188.354 158.501 187.864 157.803C187.367 157.057 187.016 156 186.812 154.632C186.608 153.264 186.559 151.318 186.665 148.795C186.763 147.189 186.871 145.485 186.988 143.684C187.152 141.875 187.327 140.137 187.513 138.47C187.691 136.756 187.857 135.284 188.012 134.055C188.206 132.773 188.339 131.885 188.41 131.392C188.376 130.192 188.308 129.575 188.207 129.542C188.098 129.461 187.901 129.756 187.615 130.426C187.362 130.994 186.91 132.17 186.26 133.955C185.61 135.74 184.884 137.825 184.082 140.211C183.327 142.59 182.596 144.965 181.889 147.337C180.489 151.211 179.307 154.449 178.345 157.052C177.382 159.654 176.585 161.75 175.954 163.339C175.316 164.881 174.814 166.041 174.447 166.819C174.135 167.637 173.882 168.205 173.688 168.523C173.549 168.882 173.439 169.115 173.359 169.223C172.644 169.282 171.981 169.043 171.37 168.507C170.76 167.971 170.226 167.303 169.769 166.503C169.604 166.046 169.46 165.561 169.335 165.049C169.21 164.537 169.173 163.964 169.223 163.33C169.313 162.641 169.491 161.891 169.756 161.08C170.186 159.763 170.622 158.637 171.061 157.703C171.501 156.77 171.777 156.198 171.891 155.988C172.077 155.623 172.213 155.241 172.299 154.842C172.384 154.444 172.426 154.076 172.424 153.739C172.617 153.421 172.883 152.778 173.222 151.812C173.607 150.838 173.982 149.794 174.346 148.678C174.632 148.009 175.024 147.082 175.523 145.899C176.015 144.668 176.544 143.36 177.109 141.974C177.667 140.54 178.148 139.239 178.552 138.069C180.073 134.033 181.281 130.815 182.177 128.415C183.067 125.968 183.725 124.399 184.153 123.708C184.448 123.423 184.664 122.933 184.802 122.237C184.979 121.488 185.138 120.934 185.277 120.575C185.741 119.156 186.24 117.972 186.774 117.025C187.348 116.023 187.894 115.483 188.414 115.406C188.791 115.35 189.284 115.421 189.893 115.62C190.548 115.811 191.198 116.124 191.842 116.559C192.452 117.095 193.047 117.85 193.627 118.824C194.247 119.745 194.538 121.051 194.501 122.745C194.567 123.506 194.586 124.444 194.559 125.557C194.525 126.623 194.491 127.689 194.457 128.755C194.423 129.821 194.365 130.722 194.281 131.457C194.221 133.636 194.098 135.728 193.915 137.732C193.772 139.683 193.631 141.488 193.493 143.148C193.354 144.808 193.259 146.269 193.206 147.531C193.146 148.745 193.125 149.737 193.143 150.506C193.209 151.267 193.377 151.749 193.648 151.949C193.797 151.976 193.978 151.9 194.193 151.724C194.448 151.493 194.632 151.272 194.746 151.062C194.973 150.643 195.176 150.227 195.356 149.814C195.535 149.402 195.772 148.884 196.065 148.262C196.665 147.112 197.275 145.863 197.894 144.517C198.553 143.117 199.312 141.413 200.17 139.404C201.069 137.341 202.116 134.822 203.312 131.847C204.502 128.825 205.946 125.089 207.647 120.64C208.486 118.828 209.278 117.022 210.022 115.223C210.767 113.424 211.474 112.017 212.142 111.001C212.738 110.141 213.571 109.751 214.645 109.832C215.766 109.906 216.845 110.348 217.882 111.158C218.919 111.968 219.588 113.05 219.886 114.404C220.031 115.057 220.066 116.258 219.988 118.005C219.952 119.698 219.828 121.621 219.62 123.774C219.41 125.927 219.123 128.044 218.758 130.123C218.735 130.946 218.657 132.043 218.525 133.413C218.391 134.783 218.239 136.18 218.065 137.605C217.891 139.029 217.721 140.308 217.552 141.442C217.461 143.096 217.368 144.411 217.272 145.39C217.225 146.362 217.292 147.461 217.474 148.687C217.162 149.505 217.042 150.632 217.11 152.069C217.18 153.505 217.328 154.978 217.553 156.487C217.639 158.355 217.432 159.712 216.931 160.559C216.477 161.398 216.151 161.808 215.956 161.789C215.557 161.704 215.268 161.867 215.088 162.28ZM245.813 154.445C244.272 154.144 242.932 153.404 241.791 152.224C240.69 150.989 239.842 149.669 239.247 148.263C239.085 148.48 238.926 148.697 238.764 148.913C238.644 149.076 238.484 149.293 238.283 149.564C237.688 150.424 236.978 151.325 236.154 152.268C235.329 153.211 234.464 154.039 233.558 154.753C232.644 155.419 231.685 155.779 230.68 155.833C229.847 155.427 229.041 155.04 228.263 154.674C227.525 154.254 226.9 153.623 226.39 152.783C226.382 152.736 226.355 152.716 226.308 152.723C226.308 152.723 226.305 152.7 226.297 152.652C225.758 151.624 225.33 150.699 225.015 149.878C224.739 149.003 224.611 147.816 224.628 146.319C224.694 144.814 224.927 142.658 225.329 139.849C225.49 138.668 225.674 137.483 225.883 136.295C226.086 135.059 226.305 133.941 226.541 132.942C226.771 131.895 227.001 131.016 227.234 130.307C227.465 129.597 227.709 129.127 227.963 128.896C228.199 128.861 228.412 128.829 228.601 128.801C228.782 128.726 228.968 128.674 229.157 128.646C229.582 128.582 230.136 128.741 230.82 129.121C231.232 129.301 231.624 129.508 231.997 129.741C232.417 129.968 232.691 130.192 232.821 130.414C233.182 130.891 233.243 131.943 233.002 133.57C232.763 135.197 232.449 136.979 232.064 138.918C231.717 140.802 231.415 142.655 231.156 144.478C230.937 146.246 230.993 147.588 231.322 148.504C231.82 148.285 232.268 148.049 232.664 147.797C233.101 147.491 233.483 147.145 233.812 146.758C234.529 146.073 235.163 145.303 235.711 144.45C236.259 143.597 236.71 142.734 237.062 141.862C237.455 140.935 237.739 140.097 237.916 139.347C238.179 138.199 238.417 137.199 238.627 136.348C238.831 135.45 238.985 134.703 239.088 134.109C239.186 133.468 239.227 132.931 239.21 132.5C239.242 132.061 239.233 131.677 239.183 131.347C239.009 130.504 239.012 129.877 239.192 129.465C239.411 128.998 239.868 128.496 240.559 127.959C240.937 127.902 241.318 127.87 241.703 127.861C242.081 127.804 242.437 127.775 242.775 127.773C243.201 128.047 243.635 128.368 244.077 128.736C244.557 129.05 245.015 129.368 245.449 129.689C245.988 130.718 246.134 132.022 245.888 133.602C245.681 135.128 245.438 136.731 245.158 138.412C244.886 140.141 244.707 141.855 244.622 143.555C244.58 145.202 245.026 146.582 245.964 147.696C246.623 147.26 247.228 146.784 247.777 146.268C248.319 145.705 248.863 145.142 249.407 144.579C249.949 144.015 250.5 143.499 251.057 143.03C251.883 143.39 252.595 144.127 253.195 145.243C253.797 146.359 254.161 147.342 254.287 148.191C254.173 148.401 254.033 148.59 253.865 148.76C253.745 148.923 253.6 149.089 253.433 149.259C253.162 150.022 252.586 150.856 251.708 151.758C250.823 152.613 249.841 153.314 248.766 153.86C247.689 154.407 246.705 154.601 245.813 154.445ZM262.053 165.189C261.42 165.476 260.712 165.413 259.926 165C259.189 164.579 258.563 163.949 258.053 163.109C257.589 162.262 257.452 161.342 257.64 160.349C257.694 160.052 257.764 159.559 257.855 158.871C257.951 158.229 257.989 157.669 257.966 157.191C257.963 156.853 258.021 156.266 258.137 155.429C258.26 154.639 258.408 153.846 258.578 153.049C258.796 152.245 258.974 151.663 259.114 151.305C259.326 150.791 259.434 150.221 259.437 149.593C259.487 148.959 259.487 148.477 259.439 148.146C259.483 147.802 259.545 147.407 259.623 146.961C259.749 146.509 259.888 146.15 260.042 145.886C260.08 145.495 260.162 145.073 260.287 144.62C260.406 144.12 260.558 143.688 260.745 143.322C260.789 142.978 260.802 142.567 260.777 142.088C260.802 141.602 260.905 141.321 261.086 141.246C261.106 141.05 261.102 140.858 261.073 140.669C261.092 140.474 261.147 140.2 261.24 139.849C261.257 139.316 261.356 138.53 261.539 137.49C261.721 136.45 261.96 135.305 262.257 134.055C262.573 132.61 262.749 131.378 262.79 130.359C262.825 129.293 262.468 128.671 261.717 128.494C261.312 128.362 261.012 127.972 260.818 127.326C260.619 126.632 260.561 125.918 260.643 125.182C260.727 124.446 260.946 123.979 261.303 123.782C261.7 123.53 262.201 123.334 262.807 123.196C263.415 123.057 263.957 122.976 264.436 122.953C264.954 122.876 265.198 122.888 265.164 122.989C265.199 123.225 265.339 123.349 265.582 123.361C265.655 123.205 265.875 123.389 266.244 123.913C266.651 124.383 267.046 124.927 267.427 125.545C267.809 126.163 268.018 126.59 268.053 126.826C267.986 127.029 267.957 127.154 267.965 127.201C267.965 127.201 268.059 127.187 268.246 127.159C268.246 127.159 268.489 127.002 268.973 126.689C269.449 126.329 269.947 125.941 270.464 125.526C271.021 125.058 271.38 124.715 271.54 124.498C271.54 124.498 271.651 124.433 271.874 124.304C272.136 124.12 272.347 123.92 272.507 123.703C273.395 123.185 274.398 122.963 275.519 123.037C276.687 123.104 277.648 123.395 278.4 123.91C279.519 124.948 280.445 126.305 281.178 127.98C281.957 129.648 282.14 131.357 281.726 133.106C281.667 133.356 281.514 133.789 281.268 134.404C281.062 134.965 280.853 135.503 280.64 136.017C280.419 136.484 280.31 136.717 280.31 136.717C279.478 138.577 278.486 140.172 277.333 141.501C276.229 142.823 274.983 144.021 273.6 145.095C273.177 145.496 272.562 145.901 271.755 146.31C270.995 146.713 270.272 147.038 269.585 147.285C268.945 147.525 268.548 147.608 268.393 147.535C267.817 147.235 267.226 146.503 266.617 145.34C266.474 145.989 266.329 146.637 266.185 147.286C266.08 147.88 266.019 148.275 265.999 148.47C266.002 148.808 265.996 149.098 265.985 149.341C265.965 149.536 265.872 149.719 265.705 149.889C265.705 149.889 265.694 149.987 265.676 150.182C265.656 150.378 265.534 150.686 265.307 151.105C265.039 152.544 264.82 153.661 264.65 154.458C264.485 155.302 264.345 155.974 264.226 156.474C264.162 157.014 264.101 157.578 264.045 158.165C264.14 159.453 264.034 160.843 263.725 162.335C263.465 163.821 262.908 164.772 262.053 165.189ZM269.169 140.62C269.344 140.497 269.65 140.283 270.087 139.977C270.57 139.664 271.096 139.296 271.659 138.875C272.216 138.406 272.729 137.967 273.2 137.56C273.71 137.098 274.062 136.708 274.255 136.39C274.569 135.909 274.733 135.547 274.744 135.304C274.75 135.014 274.8 134.548 274.898 133.907C274.983 133.509 275.085 133.059 275.204 132.56C275.321 132.06 275.42 131.587 275.498 131.141C275.63 130.736 275.646 130.348 275.542 129.977C275.478 129.553 275.285 129.22 274.959 128.979C274.762 128.96 274.325 129.098 273.646 129.392C273.013 129.679 272.291 130.173 271.479 130.872C270.713 131.565 269.987 132.517 269.3 133.729C268.499 135.15 268.01 136.405 267.835 137.492C267.653 138.531 267.701 139.344 267.981 139.929C268.254 140.467 268.651 140.697 269.169 140.62ZM295.592 164.023C295.411 164.098 295.117 164.07 294.711 163.937C294.353 163.798 294.021 163.51 293.715 163.073C293.407 162.637 293.246 162.034 293.227 161.265C292.94 160.633 292.841 159.804 292.929 158.778C293.071 157.793 293.45 156.289 294.065 154.269C294.424 153.444 294.715 152.484 294.938 151.39C295.209 150.289 295.525 149.181 295.889 148.066C296.061 147.606 296.354 146.815 296.765 145.693C297.225 144.563 297.701 143.239 298.198 141.718C298.735 140.143 299.195 138.531 299.576 136.883C298.539 138.34 297.657 139.701 296.929 140.967C296.241 142.178 295.592 143.167 294.983 143.933C294.414 144.645 293.748 145.033 292.987 145.099C292.352 145.049 291.56 144.757 290.613 144.223C289.664 143.689 289.012 143.039 288.658 142.272C288.313 141.262 288.045 139.952 287.854 138.341C287.709 136.723 287.653 134.248 287.686 130.916C287.825 129.256 287.806 128.005 287.633 127.163C287.499 126.266 287.283 125.623 286.984 125.234C286.684 124.845 286.322 124.513 285.895 124.239C285.196 123.764 285.058 123.158 285.478 122.42C285.9 121.683 286.415 121.099 287.027 120.671C287.983 120.287 288.754 120.124 289.341 120.181C289.969 120.184 290.642 120.493 291.362 121.11C291.831 121.666 292.306 122.271 292.789 122.922C293.273 123.573 293.613 124.559 293.809 125.88C293.894 126.446 293.966 127.087 294.024 127.801C294.076 128.469 294.12 129.089 294.156 129.662C294.194 130.235 294.214 130.69 294.216 131.028C294.004 132.843 293.805 134.416 293.617 135.746C293.43 137.076 293.454 137.723 293.69 137.688C294.522 136.793 295.215 135.942 295.769 135.136C296.372 134.323 297.001 133.361 297.654 132.251C298.309 131.141 299.107 129.696 300.046 127.916C300.353 127.051 300.66 126.209 300.972 125.391C301.284 124.573 301.524 123.742 301.686 122.898C301.878 122.242 302.16 121.549 302.535 120.818C302.9 120.04 303.174 119.614 303.355 119.538C303.578 119.409 303.911 119.383 304.357 119.462C304.804 119.54 305.23 119.645 305.635 119.777C306.081 119.856 306.311 119.942 306.325 120.036C306.38 120.076 306.622 120.088 307.054 120.072C307.485 120.056 307.918 120.04 308.349 120.024C308.773 119.961 308.997 120 309.019 120.141C309.032 120.236 308.942 120.611 308.752 121.266C308.607 121.914 308.426 122.64 308.208 123.445C307.991 124.249 307.785 124.978 307.595 125.634C307.443 126.235 307.397 126.579 307.459 126.667C307.567 126.747 307.549 127.111 307.404 127.76C307.254 128.361 307.065 129.04 306.839 129.797C306.663 130.547 306.498 131.222 306.346 131.823C306.107 133.45 305.796 135.088 305.416 136.736C305.027 138.337 304.52 139.956 303.896 141.592C303.698 142.2 303.403 143.136 303.013 144.4C302.67 145.657 302.323 146.89 301.973 148.099C301.677 149.349 301.432 150.301 301.242 150.957C301.109 151.362 300.913 151.994 300.656 152.852C300.451 153.751 300.211 154.727 299.935 155.781C299.705 156.828 299.465 157.804 299.213 158.709C298.97 159.662 298.789 160.388 298.67 160.888C298.709 161.798 298.595 162.49 298.329 162.964C297.968 163.452 297.409 163.752 296.654 163.865C295.946 163.97 295.592 164.023 295.592 164.023Z" fill="white"/>
</svg>
