<svg width="168" height="81" viewBox="0 0 168 81" fill="none" xmlns="http://www.w3.org/2000/svg">
<path d="M11.6211 21.3916H5.41211L5.37891 17.9717H10.5918C11.5104 17.9717 12.263 17.8555 12.8496 17.623C13.4362 17.3796 13.8734 17.0309 14.1611 16.5771C14.46 16.1123 14.6094 15.5479 14.6094 14.8838C14.6094 14.1312 14.4655 13.5225 14.1777 13.0576C13.901 12.5928 13.4639 12.2552 12.8662 12.0449C12.2796 11.8346 11.5215 11.7295 10.5918 11.7295H7.13867V32H2.1582V7.82812H10.5918C11.9974 7.82812 13.2536 7.96094 14.3604 8.22656C15.4782 8.49219 16.4245 8.89616 17.1992 9.43848C17.974 9.98079 18.5661 10.667 18.9756 11.4971C19.3851 12.3161 19.5898 13.29 19.5898 14.4189C19.5898 15.415 19.363 16.3337 18.9092 17.1748C18.4665 18.016 17.7637 18.7021 16.8008 19.2334C15.849 19.7646 14.6038 20.0579 13.0654 20.1133L11.6211 21.3916ZM11.4053 32H4.05078L5.99316 28.1152H11.4053C12.2796 28.1152 12.9935 27.9769 13.5469 27.7002C14.1003 27.4124 14.5098 27.0251 14.7754 26.5381C15.041 26.0511 15.1738 25.4922 15.1738 24.8613C15.1738 24.153 15.0521 23.5387 14.8086 23.0186C14.5762 22.4984 14.1999 22.0999 13.6797 21.8232C13.1595 21.5355 12.4733 21.3916 11.6211 21.3916H6.82324L6.85645 17.9717H12.833L13.9785 19.3164C15.4505 19.2943 16.6348 19.5544 17.5312 20.0967C18.4388 20.6279 19.0973 21.3197 19.5068 22.1719C19.9274 23.0241 20.1377 23.9372 20.1377 24.9111C20.1377 26.4606 19.8001 27.7666 19.125 28.8291C18.4499 29.8805 17.4593 30.6719 16.1533 31.2031C14.8584 31.7344 13.2757 32 11.4053 32ZM34.498 26.5049L39.2129 14.0371H43.1143L36.1084 32H32.8877L25.915 14.0371H29.8164L34.498 26.5049ZM28.6709 14.0371V32H23.8896V14.0371H28.6709ZM40.4414 32V14.0371H45.2227V32H40.4414ZM57.6738 32.332C56.2793 32.332 55.0286 32.1107 53.9219 31.668C52.8151 31.2142 51.8743 30.5889 51.0996 29.792C50.3359 28.9951 49.7493 28.071 49.3398 27.0195C48.9303 25.957 48.7256 24.8281 48.7256 23.6328V22.9688C48.7256 21.6074 48.9193 20.3623 49.3066 19.2334C49.694 18.1045 50.2474 17.125 50.9668 16.2949C51.6973 15.4648 52.5827 14.8285 53.623 14.3857C54.6634 13.932 55.8366 13.7051 57.1426 13.7051C58.4154 13.7051 59.5443 13.9154 60.5293 14.3359C61.5143 14.7565 62.3389 15.3542 63.0029 16.1289C63.6781 16.9036 64.1872 17.8333 64.5303 18.918C64.8734 19.9915 65.0449 21.1868 65.0449 22.5039V24.4961H50.7676V21.3086H60.3467V20.9434C60.3467 20.2793 60.2249 19.6872 59.9814 19.167C59.749 18.6357 59.3949 18.2152 58.9189 17.9053C58.443 17.5954 57.8343 17.4404 57.0928 17.4404C56.4619 17.4404 55.9196 17.5788 55.4658 17.8555C55.012 18.1322 54.6413 18.5195 54.3535 19.0176C54.0768 19.5156 53.8665 20.1022 53.7227 20.7773C53.5898 21.4414 53.5234 22.1719 53.5234 22.9688V23.6328C53.5234 24.3522 53.623 25.0163 53.8223 25.625C54.0326 26.2337 54.3258 26.7594 54.7021 27.2021C55.0895 27.6449 55.5544 27.988 56.0967 28.2314C56.6501 28.4749 57.2754 28.5967 57.9727 28.5967C58.8359 28.5967 59.6383 28.4307 60.3799 28.0986C61.1325 27.7555 61.7799 27.2409 62.3223 26.5547L64.6465 29.0781C64.2702 29.6204 63.7555 30.1406 63.1025 30.6387C62.4606 31.1367 61.6859 31.5462 60.7783 31.8672C59.8708 32.1771 58.8359 32.332 57.6738 32.332ZM75.1885 28.5967C75.7751 28.5967 76.2952 28.486 76.749 28.2646C77.2028 28.0322 77.557 27.7113 77.8115 27.3018C78.0771 26.8812 78.2155 26.3887 78.2266 25.8242H82.7256C82.7145 27.0859 82.377 28.2093 81.7129 29.1943C81.0488 30.1683 80.1579 30.9375 79.04 31.502C77.9222 32.0553 76.6715 32.332 75.2881 32.332C73.8936 32.332 72.6761 32.0996 71.6357 31.6348C70.6064 31.1699 69.7487 30.528 69.0625 29.709C68.3763 28.8789 67.8617 27.916 67.5186 26.8203C67.1755 25.7135 67.0039 24.5293 67.0039 23.2676V22.7861C67.0039 21.5133 67.1755 20.3291 67.5186 19.2334C67.8617 18.1266 68.3763 17.1637 69.0625 16.3447C69.7487 15.5146 70.6064 14.8672 71.6357 14.4023C72.665 13.9375 73.8714 13.7051 75.2549 13.7051C76.7269 13.7051 78.0163 13.9873 79.123 14.5518C80.2409 15.1162 81.1152 15.9242 81.7461 16.9756C82.388 18.016 82.7145 19.25 82.7256 20.6777H78.2266C78.2155 20.0801 78.0882 19.5378 77.8447 19.0508C77.6123 18.5638 77.2692 18.1764 76.8154 17.8887C76.3727 17.5898 75.8249 17.4404 75.1719 17.4404C74.4746 17.4404 73.9046 17.5898 73.4619 17.8887C73.0192 18.1764 72.6761 18.5749 72.4326 19.084C72.1891 19.582 72.0176 20.152 71.918 20.7939C71.8294 21.4248 71.7852 22.0889 71.7852 22.7861V23.2676C71.7852 23.9648 71.8294 24.6344 71.918 25.2764C72.0065 25.9183 72.1725 26.4883 72.416 26.9863C72.6706 27.4844 73.0192 27.8773 73.4619 28.165C73.9046 28.4528 74.4801 28.5967 75.1885 28.5967ZM94.6455 14.0371V32H89.8477V14.0371H94.6455ZM100.423 14.0371V17.7393H84.1533V14.0371H100.423ZM109.969 32.332C108.574 32.332 107.324 32.1107 106.217 31.668C105.11 31.2142 104.169 30.5889 103.395 29.792C102.631 28.9951 102.044 28.071 101.635 27.0195C101.225 25.957 101.021 24.8281 101.021 23.6328V22.9688C101.021 21.6074 101.214 20.3623 101.602 19.2334C101.989 18.1045 102.542 17.125 103.262 16.2949C103.992 15.4648 104.878 14.8285 105.918 14.3857C106.958 13.932 108.132 13.7051 109.438 13.7051C110.71 13.7051 111.839 13.9154 112.824 14.3359C113.809 14.7565 114.634 15.3542 115.298 16.1289C115.973 16.9036 116.482 17.8333 116.825 18.918C117.168 19.9915 117.34 21.1868 117.34 22.5039V24.4961H103.062V21.3086H112.642V20.9434C112.642 20.2793 112.52 19.6872 112.276 19.167C112.044 18.6357 111.69 18.2152 111.214 17.9053C110.738 17.5954 110.129 17.4404 109.388 17.4404C108.757 17.4404 108.215 17.5788 107.761 17.8555C107.307 18.1322 106.936 18.5195 106.648 19.0176C106.372 19.5156 106.161 20.1022 106.018 20.7773C105.885 21.4414 105.818 22.1719 105.818 22.9688V23.6328C105.818 24.3522 105.918 25.0163 106.117 25.625C106.327 26.2337 106.621 26.7594 106.997 27.2021C107.384 27.6449 107.849 27.988 108.392 28.2314C108.945 28.4749 109.57 28.5967 110.268 28.5967C111.131 28.5967 111.933 28.4307 112.675 28.0986C113.427 27.7555 114.075 27.2409 114.617 26.5547L116.941 29.0781C116.565 29.6204 116.05 30.1406 115.397 30.6387C114.756 31.1367 113.981 31.5462 113.073 31.8672C112.166 32.1771 111.131 32.332 109.969 32.332Z" fill="#B1DF1D"/>
<path d="M28.4288 65.5957C27.6231 65.7158 27.0507 65.5953 26.7117 65.234C26.3681 64.8417 26.0307 64.3851 25.6996 63.8643C25.6211 63.3374 25.6131 62.7526 25.6756 62.1096C25.7645 61.4311 25.8952 60.7147 26.0679 59.9603C26.2359 59.1749 26.4062 58.405 26.5788 57.6507C26.5872 56.8574 26.6933 56.0813 26.8969 55.3223C27.1005 54.5633 27.2444 53.829 27.3287 53.1195C27.4222 52.472 27.5049 51.8577 27.5766 51.2768C27.6748 50.6602 27.7775 50.0747 27.8849 49.5201C27.8202 49.0862 27.8422 48.7028 27.951 48.3698C28.0861 48.0012 28.2792 47.7031 28.5304 47.4755C28.7816 47.248 29.0777 47.1088 29.4186 47.058C29.7779 47.1311 30.0351 47.1561 30.1901 47.133C30.376 47.1053 30.5263 47.0512 30.6411 46.9707C30.7822 46.8547 31.1006 46.7596 31.5965 46.6857C32.0923 46.6118 32.6192 46.5332 33.177 46.45C33.7348 46.3668 34.1509 46.2889 34.4252 46.2164C34.9474 46.1068 35.4192 46.084 35.8406 46.1479C36.2619 46.2117 36.674 46.2137 37.0769 46.1536C37.7647 46.3045 38.4284 46.5064 39.0681 46.7595C39.7341 46.977 40.2745 47.3083 40.6894 47.7533C41.1352 48.1937 41.3849 48.8059 41.4384 49.5899C41.4102 50.0376 41.4244 50.5582 41.4813 51.1516C41.5691 51.7405 41.4818 52.3237 41.2195 52.9014C41.2208 53.123 41.1352 53.6109 40.9626 54.3653C40.7853 55.0887 40.5972 55.8454 40.3982 56.6354C40.2302 57.4207 40.1475 58.035 40.1503 58.4781C40.1206 58.7043 40.0933 58.9459 40.0683 59.2031C40.0433 59.4603 40.0183 59.7174 39.9933 59.9746C39.9696 60.4533 39.9282 60.9189 39.8689 61.3712C39.805 61.7926 39.6567 62.179 39.424 62.5305C39.0548 63.0291 38.5712 63.2913 37.9732 63.3171C37.3705 63.3119 36.8353 63.1225 36.3678 62.7487C35.9002 62.3749 35.6512 61.8734 35.6207 61.2444C35.5791 60.9655 35.5477 60.5425 35.5265 59.9754C35.5053 59.4083 35.4888 58.8722 35.4768 58.3671C35.4926 58.048 35.5331 57.7885 35.5983 57.5887C35.6899 57.3533 35.742 57.1713 35.7545 57.0427C35.9752 56.1861 36.1534 55.2567 36.2891 54.2544C36.4557 53.2474 36.5696 52.3117 36.6308 51.4473C36.6874 50.5518 36.6942 49.8538 36.6512 49.3534C36.2173 49.4181 35.7106 49.5253 35.131 49.6751C34.5778 49.7893 34.0556 49.8988 33.5644 50.0037C33.1041 50.1041 32.7655 50.1704 32.5486 50.2027C32.3627 50.2305 32.2565 50.2621 32.2301 50.2977C32.1991 50.3024 32.1797 50.3845 32.1718 50.544C32.1014 51.3465 31.9674 52.2536 31.7698 53.2651C31.5985 54.241 31.4885 55.0969 31.4399 55.8328C31.4458 56.0854 31.3796 56.4912 31.2413 57.0504C31.0983 57.5786 30.949 58.1711 30.7935 58.8279C30.6334 59.4537 30.502 60.0594 30.3992 60.6449C30.2918 61.1995 30.2457 61.6341 30.261 61.9486C30.1074 62.1933 30.025 62.4907 30.0139 62.8408C30.0337 63.1863 30.0512 63.5163 30.0665 63.8309C30.0567 64.4026 29.8797 64.8091 29.5355 65.0505C29.2177 65.2563 28.8488 65.438 28.4288 65.5957ZM49.3272 62.4318C48.9243 62.4919 48.5873 62.463 48.3163 62.345C48.0763 62.2224 47.765 62.047 47.3825 61.8189C46.7013 61.2869 46.1215 60.6923 45.6434 60.0349C45.1962 59.373 44.9798 58.7717 44.9942 58.2309C45.0502 57.9692 45.0465 57.7321 44.9832 57.5198C44.9462 57.2719 44.9277 57.1479 44.9277 57.1479C44.7497 57.0161 44.6893 56.93 44.7467 56.8898C44.7994 56.8186 44.8475 56.7163 44.891 56.5831C45.077 56.5554 45.1135 56.3757 45.0007 56.0441C44.9018 55.8054 44.9162 55.2647 45.044 54.422C45.1981 53.5436 45.4521 52.6979 45.8061 51.8848C45.9458 51.5472 46.1647 51.1027 46.4626 50.5514C46.7559 49.9691 47.0826 49.3977 47.4425 48.8371C47.8288 48.241 48.1848 47.7602 48.5105 47.3948C49.1882 46.6285 49.8224 45.9954 50.4131 45.4954C51.0348 44.9909 51.675 44.6103 52.3337 44.3537C52.9924 44.0971 53.6782 43.9156 54.3909 43.8093C55.1347 43.6984 55.776 43.8562 56.3148 44.2827C57.0738 44.4864 57.632 44.8308 57.9895 45.316C58.378 45.7967 58.6811 46.4484 58.8988 47.2713C59.1305 48.1872 59.2085 49.3477 59.1329 50.7529C59.0527 52.1271 58.5245 53.7898 57.5483 55.7411C56.9399 56.9723 56.31 57.9533 55.6587 58.684C55.0073 59.4147 54.2715 60.1105 53.4514 60.7714C52.8653 61.3023 52.2073 61.6697 51.4774 61.8736C50.7474 62.0775 50.0307 62.2636 49.3272 62.4318ZM53.223 56.0535C53.817 55.363 54.2003 54.6405 54.373 53.8862C54.5766 53.1272 54.7772 52.2419 54.9748 51.2304C55.0711 51.0259 55.1023 50.7045 55.0686 50.266C55.0659 49.8229 55.019 49.4022 54.928 49.0039C54.8323 48.5747 54.6868 48.3429 54.4916 48.3087C54.1804 48.1333 53.8945 48.1284 53.6341 48.294C53.369 48.4286 53.0427 48.6831 52.655 49.0577C51.8409 49.9711 51.1071 50.9993 50.4539 52.1421C49.827 53.2494 49.4672 54.5544 49.3745 56.0571C49.3971 56.8458 49.5623 57.423 49.8703 57.7889C50.2047 58.1192 50.6548 58.163 51.2205 57.9202C51.8126 57.6419 52.4801 57.0196 53.223 56.0535ZM101.377 57.2837C101.272 57.4262 100.982 57.5011 100.508 57.5084C100.038 57.5467 99.6342 57.3853 99.2952 57.024C99.0135 56.6225 98.8156 56.1451 98.7015 55.5919C98.5873 55.0387 98.4718 54.2639 98.3549 53.2676C98.3791 52.1552 98.4764 50.6834 98.6468 48.8522C98.8173 47.0211 99.0042 44.9815 99.2075 42.7336C99.4373 40.4501 99.66 38.1201 99.8759 35.7436C99.9931 34.6173 100.074 33.6708 100.118 32.9039C100.193 32.1324 100.234 31.556 100.24 31.1749C100.273 30.7582 100.289 30.5498 100.289 30.5498C100.268 30.6164 100.23 30.6853 100.178 30.7565C100.156 30.8231 100.134 30.8897 100.112 30.9563C100.091 31.023 100.069 31.0896 100.047 31.1562C100.047 31.1562 100.001 31.2739 99.9098 31.5093C99.8491 31.7401 99.6877 32.1443 99.4253 32.722C99.2329 33.1309 99.0651 33.5994 98.9221 34.1276C98.7791 34.6558 98.5043 35.362 98.0976 36.2464C97.7404 37.25 97.342 38.4024 96.9024 39.7035C96.4628 41.0045 96.0793 42.0438 95.7517 42.8213C95.5856 43.1945 95.428 43.519 95.2791 43.7946C95.1611 44.0657 95.0827 44.2833 95.0438 44.4475C94.9707 44.8068 94.8316 45.2553 94.6266 45.7927C94.4217 46.3301 94.1679 46.859 93.8653 47.3793C93.721 47.686 93.5216 48.0484 93.2671 48.4665C93.0436 48.8799 92.8466 49.2578 92.6758 49.6001C92.5005 49.9113 92.4128 50.067 92.4128 50.067C92.3786 50.2621 92.221 50.5866 91.9402 51.0403C91.6594 51.494 91.308 52.0058 90.8861 52.5756C90.4906 53.1097 90.0749 53.6152 89.6391 54.0921C88.6839 55.1215 87.866 55.7979 87.1856 56.1211C86.5361 56.4397 85.7066 56.2942 84.6969 55.6844C84.2201 55.2486 83.8208 54.8013 83.4989 54.3424C83.1724 53.8525 82.9422 53.1582 82.8082 52.2595C82.6741 51.3608 82.6419 50.0826 82.7115 48.4248C82.776 47.3698 82.8466 46.2505 82.9236 45.0668C83.0315 43.8786 83.1464 42.7368 83.2682 41.6415C83.3853 40.5153 83.4946 39.5486 83.596 38.7415C83.7238 37.8987 83.8111 37.3155 83.8578 36.9917C83.8353 36.2031 83.7907 35.7979 83.7241 35.7762C83.6528 35.7234 83.5233 35.917 83.3355 36.3568C83.1694 36.7301 82.8728 37.5029 82.4457 38.6754C82.0186 39.8479 81.5418 41.2179 81.0152 42.7853C80.5196 44.3482 80.0395 45.9087 79.575 47.467C78.6556 50.0117 77.8798 52.1391 77.2478 53.849C76.6157 55.5589 76.0924 56.9358 75.6778 57.9797C75.2587 58.9926 74.9288 59.7546 74.6882 60.2657C74.4832 60.8031 74.3171 61.1764 74.1899 61.3854C74.0983 61.6208 74.0261 61.7742 73.9733 61.8454C73.5039 61.8837 73.0686 61.7269 72.6677 61.3748C72.2667 61.0228 71.9161 60.584 71.616 60.0585C71.5078 59.7579 71.4128 59.4394 71.331 59.1031C71.2492 58.7668 71.2247 58.3903 71.2576 57.9736C71.3169 57.5212 71.4335 57.0286 71.6075 56.4958C71.8902 55.63 72.1759 54.8904 72.4646 54.2771C72.7533 53.6638 72.9349 53.2883 73.0094 53.1505C73.132 52.9104 73.2213 52.6595 73.2773 52.3977C73.3333 52.1359 73.3606 51.8943 73.3593 51.6727C73.4865 51.4636 73.6612 51.0416 73.8833 50.4066C74.1364 49.7669 74.3825 49.0808 74.6217 48.3481C74.8096 47.9083 75.0673 47.2996 75.3949 46.5221C75.7178 45.7137 76.0649 44.8541 76.4359 43.9434C76.8024 43.0017 77.1184 42.1468 77.384 41.3785C78.3825 38.7269 79.1761 36.6128 79.7646 35.036C80.3485 33.4283 80.7809 32.3976 81.0617 31.9439C81.2556 31.7566 81.3976 31.4345 81.4879 30.9775C81.6045 30.4849 81.7086 30.1209 81.8002 29.8855C82.1047 28.953 82.4323 28.1756 82.783 27.553C83.16 26.8949 83.519 26.5404 83.8599 26.4896C84.1078 26.4526 84.4316 26.4994 84.8312 26.6298C85.2618 26.7557 85.6885 26.9614 86.1112 27.2468C86.5122 27.5989 86.9029 28.095 87.2835 28.7352C87.6905 29.3398 87.8819 30.1983 87.8577 31.3107C87.9006 31.8111 87.9133 32.427 87.8956 33.1583C87.8733 33.8586 87.851 34.5588 87.8287 35.2591C87.8064 35.9594 87.7679 36.5512 87.7133 37.0346C87.6733 38.4661 87.5931 39.8403 87.4727 41.1571C87.3786 42.4383 87.2862 43.6243 87.1954 44.7149C87.1046 45.8056 87.0418 46.7653 87.007 47.5942C86.9676 48.3921 86.9538 49.0436 86.9658 49.5487C87.0088 50.0491 87.1193 50.3653 87.2973 50.4971C87.3949 50.5143 87.5143 50.4648 87.6553 50.3487C87.8228 50.197 87.9438 50.0523 88.0183 49.9144C88.1672 49.6388 88.3007 49.3654 88.4187 49.0944C88.5367 48.8234 88.6919 48.4834 88.8844 48.0746C89.2786 47.3188 89.679 46.4988 90.0857 45.6145C90.5187 44.6946 91.017 43.5748 91.5806 42.2553C92.1705 40.9001 92.8583 39.2452 93.6439 37.2907C94.425 35.3051 95.3737 32.851 96.4902 29.9283C97.0412 28.7374 97.5613 27.551 98.0503 26.3693C98.5394 25.1876 99.0034 24.263 99.4425 23.5957C99.8334 23.0305 100.381 22.7745 101.086 22.8278C101.822 22.8765 102.531 23.1668 103.212 23.6988C103.893 24.2308 104.332 24.9416 104.528 25.8311C104.623 26.2603 104.646 27.049 104.595 28.197C104.571 29.3094 104.49 30.5728 104.353 31.9872C104.215 33.4016 104.027 34.792 103.787 36.1583C103.772 36.699 103.721 37.4194 103.634 38.3195C103.546 39.2196 103.446 40.1375 103.332 41.0732C103.218 42.0089 103.106 42.8493 102.995 43.5944C102.935 44.6805 102.874 45.5449 102.811 46.1879C102.78 46.8262 102.824 47.5482 102.944 48.3539C102.739 48.8914 102.66 49.6319 102.705 50.5755C102.751 51.5191 102.848 52.4867 102.996 53.4784C103.052 54.7055 102.916 55.5971 102.587 56.153C102.289 56.7043 102.075 56.9737 101.947 56.9612C101.685 56.9052 101.495 57.0127 101.377 57.2837ZM121.554 52.1366C120.542 51.939 119.662 51.4525 118.913 50.6772C118.19 49.8662 117.633 48.9989 117.242 48.0752C117.136 48.2176 117.031 48.3601 116.925 48.5025C116.846 48.6094 116.741 48.7518 116.609 48.9299C116.218 49.495 115.752 50.0872 115.211 50.7065C114.669 51.3258 114.101 51.8699 113.506 52.3388C112.906 52.7768 112.276 53.0133 111.616 53.0483C111.069 52.7814 110.54 52.5276 110.029 52.287C109.544 52.0108 109.134 51.5968 108.799 51.0449C108.794 51.014 108.776 51.0008 108.745 51.0054C108.745 51.0054 108.743 50.9899 108.738 50.9589C108.384 50.2831 108.103 49.6755 107.896 49.1362C107.715 48.5612 107.631 47.7818 107.642 46.798C107.685 45.8096 107.838 44.3928 108.102 42.5478C108.208 41.7717 108.329 40.9932 108.466 40.2125C108.599 39.4008 108.743 38.6665 108.898 38.0097C109.049 37.3219 109.2 36.7449 109.353 36.2787C109.505 35.8125 109.665 35.5035 109.832 35.3519C109.987 35.3287 110.127 35.308 110.251 35.2895C110.37 35.24 110.492 35.206 110.616 35.1875C110.895 35.1459 111.259 35.2501 111.708 35.4999C111.979 35.6179 112.236 35.7537 112.481 35.9072C112.757 36.0562 112.937 36.2036 113.022 36.3493C113.259 36.6624 113.299 37.3535 113.141 38.4224C112.984 39.4913 112.778 40.6624 112.525 41.9357C112.297 43.1735 112.099 44.3911 111.929 45.5886C111.785 46.7504 111.822 47.632 112.038 48.2334C112.365 48.0896 112.659 47.9349 112.919 47.7693C113.206 47.5682 113.457 47.3406 113.673 47.0867C114.144 46.6363 114.56 46.1308 114.92 45.5702C115.28 45.0097 115.576 44.4429 115.807 43.8698C116.065 43.2612 116.252 42.7105 116.368 42.2179C116.541 41.4636 116.697 40.8068 116.835 40.2476C116.969 39.6574 117.07 39.1671 117.138 38.7768C117.202 38.3554 117.229 38.0029 117.218 37.7194C117.239 37.4312 117.233 37.1787 117.2 36.9618C117.086 36.4086 117.088 35.9964 117.206 35.7254C117.35 35.4188 117.65 35.089 118.104 34.7361C118.352 34.6992 118.602 34.6777 118.855 34.6717C119.103 34.6348 119.337 34.6156 119.559 34.6142C119.839 34.7942 120.124 35.0051 120.414 35.2471C120.729 35.4534 121.03 35.6621 121.315 35.873C121.669 36.5488 121.765 37.4057 121.603 38.4436C121.467 39.4459 121.308 40.4993 121.124 41.6038C120.945 42.7394 120.828 43.8656 120.772 44.9826C120.744 46.0641 121.037 46.9707 121.653 47.7025C122.086 47.4162 122.483 47.1036 122.844 46.7646C123.2 46.3946 123.557 46.0246 123.914 45.6547C124.27 45.2847 124.632 44.9457 124.998 44.6377C125.54 44.8736 126.008 45.3582 126.402 46.0914C126.797 46.8246 127.036 47.4701 127.119 48.0279C127.044 48.1657 126.952 48.2904 126.842 48.4018C126.763 48.5087 126.668 48.6178 126.558 48.7293C126.38 49.2311 126.002 49.7785 125.425 50.3714C124.844 50.9333 124.199 51.3936 123.493 51.7525C122.786 52.1113 122.14 52.2394 121.554 52.1366ZM132.219 59.1948C131.803 59.3835 131.338 59.342 130.822 59.0705C130.338 58.7943 129.927 58.3802 129.592 57.8284C129.287 57.2719 129.197 56.6676 129.321 56.0154C129.356 55.8202 129.402 55.4965 129.462 55.0441C129.525 54.6228 129.55 54.2548 129.535 53.9403C129.533 53.7187 129.571 53.333 129.647 52.783C129.728 52.2641 129.825 51.7428 129.937 51.2192C130.08 50.691 130.197 50.3092 130.289 50.0738C130.428 49.7362 130.499 49.3613 130.501 48.9492C130.534 48.5324 130.534 48.2156 130.502 47.9986C130.531 47.7725 130.572 47.513 130.623 47.2202C130.706 46.9228 130.797 46.6874 130.898 46.5139C130.923 46.2568 130.977 45.9795 131.059 45.6821C131.137 45.3537 131.237 45.0695 131.36 44.8294C131.389 44.6033 131.397 44.3329 131.381 44.0184C131.397 43.6992 131.465 43.5149 131.584 43.4654C131.597 43.3369 131.594 43.2106 131.575 43.0866C131.588 42.958 131.624 42.7784 131.685 42.5476C131.696 42.1974 131.761 41.6808 131.881 40.9976C132.001 40.3145 132.158 39.5624 132.353 38.7414C132.56 37.7919 132.676 36.9824 132.703 36.3131C132.726 35.6129 132.491 35.2044 131.998 35.0878C131.732 35.0008 131.535 34.745 131.408 34.3204C131.277 33.8647 131.239 33.3953 131.293 32.9119C131.348 32.4286 131.492 32.1219 131.726 31.992C131.987 31.8264 132.316 31.6981 132.714 31.607C133.113 31.516 133.469 31.4628 133.784 31.4476C134.124 31.3968 134.284 31.4047 134.262 31.4713C134.285 31.6262 134.377 31.7076 134.536 31.7155C134.584 31.6133 134.729 31.7343 134.971 32.0784C135.238 32.387 135.498 32.7443 135.748 33.1505C135.999 33.5566 136.136 33.8372 136.159 33.9921C136.115 34.1253 136.096 34.2074 136.101 34.2384C136.101 34.2384 136.163 34.2292 136.286 34.2107C136.286 34.2107 136.445 34.1078 136.763 33.902C137.076 33.6652 137.403 33.4106 137.742 33.1382C138.108 32.8302 138.344 32.605 138.449 32.4626C138.449 32.4626 138.522 32.42 138.668 32.3349C138.84 32.2142 138.979 32.0827 139.084 31.9402C139.667 31.5999 140.326 31.454 141.062 31.5027C141.829 31.5467 142.46 31.7378 142.954 32.076C143.689 32.7584 144.297 33.6497 144.778 34.7502C145.29 35.846 145.41 36.9686 145.138 38.118C145.099 38.2822 144.999 38.5664 144.837 38.9706C144.702 39.3392 144.565 39.6924 144.425 40.03C144.28 40.3367 144.208 40.49 144.208 40.49C143.662 41.7119 143.01 42.7595 142.253 43.6327C141.528 44.5012 140.71 45.2884 139.802 45.9941C139.524 46.2572 139.12 46.5234 138.59 46.7925C138.091 47.057 137.616 47.2704 137.165 47.4327C136.745 47.5903 136.484 47.6451 136.382 47.597C136.004 47.3999 135.616 46.9193 135.216 46.1551C135.122 46.5811 135.027 47.0071 134.932 47.4331C134.863 47.8235 134.823 48.0829 134.81 48.2115C134.812 48.4331 134.808 48.6236 134.801 48.7832C134.788 48.9118 134.727 49.0318 134.617 49.1433C134.617 49.1433 134.61 49.2076 134.598 49.3361C134.585 49.4647 134.505 49.6669 134.356 49.9425C134.18 50.8874 134.036 51.6217 133.924 52.1453C133.816 52.6999 133.724 53.1413 133.646 53.4697C133.604 53.8245 133.564 54.1947 133.527 54.5805C133.589 55.4265 133.52 56.3398 133.317 57.3203C133.146 58.2962 132.78 58.9211 132.219 59.1948ZM136.892 43.054C137.007 42.9736 137.208 42.8327 137.495 42.6316C137.812 42.4258 138.157 42.1844 138.527 41.9074C138.893 41.5994 139.23 41.3115 139.539 41.0437C139.874 40.7403 140.105 40.4841 140.232 40.2751C140.438 39.9592 140.546 39.7215 140.553 39.5619C140.557 39.3713 140.59 39.0653 140.654 38.644C140.71 38.3822 140.777 38.0871 140.855 37.7587C140.932 37.4303 140.997 37.1197 141.048 36.827C141.135 36.5605 141.145 36.3057 141.077 36.0624C141.035 35.7835 140.908 35.5649 140.694 35.4067C140.565 35.3942 140.278 35.4846 139.832 35.6779C139.416 35.8665 138.942 36.1907 138.409 36.6504C137.906 37.1055 137.429 37.731 136.978 38.5269C136.452 39.4607 136.131 40.2847 136.016 40.9989C135.896 41.682 135.928 42.2158 136.112 42.6002C136.291 42.9536 136.552 43.1049 136.892 43.054ZM154.244 58.429C154.125 58.4785 153.932 58.4597 153.665 58.3727C153.43 58.2811 153.212 58.0919 153.011 57.8051C152.809 57.5183 152.703 57.1224 152.691 56.6173C152.502 56.2019 152.437 55.6572 152.495 54.9833C152.588 54.3358 152.837 53.3483 153.241 52.0209C153.477 51.4788 153.668 50.8484 153.814 50.1296C153.992 49.4062 154.2 48.6782 154.439 47.9456C154.552 47.6436 154.744 47.1239 155.014 46.3867C155.316 45.6448 155.629 44.7744 155.955 43.7753C156.308 42.7407 156.61 41.682 156.86 40.5992C156.179 41.5561 155.6 42.4503 155.122 43.2819C154.67 44.0779 154.244 44.7275 153.844 45.2307C153.47 45.6982 153.033 45.9535 152.533 45.9964C152.116 45.9635 151.596 45.7718 150.974 45.4211C150.351 45.0704 149.923 44.6432 149.69 44.1394C149.464 43.4761 149.288 42.6153 149.162 41.557C149.067 40.4941 149.03 38.868 149.052 36.6788C149.143 35.5882 149.131 34.7663 149.017 34.2131C148.929 33.6242 148.787 33.2019 148.591 32.9461C148.394 32.6903 148.156 32.4724 147.876 32.2924C147.417 31.9806 147.326 31.5824 147.602 31.0977C147.879 30.613 148.217 30.2298 148.619 29.9482C149.247 29.6962 149.753 29.5889 150.139 29.6264C150.551 29.6283 150.993 29.8317 151.466 30.2365C151.774 30.6024 152.086 30.9993 152.403 31.4272C152.721 31.8551 152.944 32.5029 153.073 33.3706C153.129 33.7425 153.176 34.1632 153.214 34.6327C153.248 35.0712 153.277 35.4787 153.301 35.8552C153.326 36.2317 153.339 36.5307 153.34 36.7523C153.201 37.9451 153.07 38.9784 152.947 39.8521C152.824 40.7259 152.84 41.1512 152.995 41.1281C153.541 40.5398 153.996 39.9809 154.36 39.4513C154.756 38.9171 155.169 38.2854 155.598 37.556C156.028 36.8266 156.552 35.8773 157.169 34.7081C157.37 34.1397 157.572 33.5867 157.777 33.0493C157.982 32.5119 158.139 31.9659 158.246 31.4113C158.372 30.9807 158.557 30.5253 158.803 30.0452C159.043 29.5342 159.223 29.2539 159.342 29.2044C159.488 29.1193 159.707 29.1025 160 29.1539C160.293 29.2052 160.573 29.2744 160.839 29.3614C161.132 29.4128 161.283 29.4695 161.292 29.5315C161.328 29.5578 161.487 29.5657 161.771 29.5551C162.054 29.5445 162.338 29.5339 162.621 29.5233C162.9 29.4817 163.047 29.5074 163.061 29.6004C163.07 29.6624 163.011 29.9087 162.886 30.3393C162.791 30.7653 162.672 31.2423 162.529 31.7705C162.386 32.2987 162.251 32.7781 162.126 33.2088C162.026 33.6037 161.996 33.8299 162.037 33.8873C162.108 33.94 162.096 34.1794 162.001 34.6054C161.902 35.0004 161.778 35.4465 161.63 35.9437C161.514 36.4363 161.406 36.8801 161.306 37.2751C161.149 38.344 160.945 39.4198 160.695 40.5026C160.44 41.5543 160.107 42.6177 159.697 43.6926C159.567 44.0922 159.373 44.7071 159.117 45.5373C158.892 46.3629 158.664 47.173 158.434 47.9676C158.24 48.7886 158.079 49.4144 157.954 49.845C157.867 50.1114 157.738 50.5265 157.569 51.0903C157.435 51.6805 157.277 52.3218 157.096 53.0142C156.945 53.702 156.787 54.3433 156.622 54.9381C156.462 55.5639 156.343 56.041 156.265 56.3694C156.291 56.9674 156.216 57.4221 156.041 57.7333C155.804 58.0539 155.437 58.2511 154.941 58.325C154.476 58.3943 154.244 58.429 154.244 58.429Z" fill="white"/>
</svg>
